<?xml version="1.0" encoding="UTF-8" standalone="no"?>
<!-- Created with Inkscape (http://www.inkscape.org/) -->

<svg
   xmlns:dc="http://purl.org/dc/elements/1.1/"
   xmlns:cc="http://creativecommons.org/ns#"
   xmlns:rdf="http://www.w3.org/1999/02/22-rdf-syntax-ns#"
   xmlns:svg="http://www.w3.org/2000/svg"
   xmlns="http://www.w3.org/2000/svg"
   xmlns:sodipodi="http://sodipodi.sourceforge.net/DTD/sodipodi-0.dtd"
   xmlns:inkscape="http://www.inkscape.org/namespaces/inkscape"
   version="1.1"
   id="svg278"
   width="528.44421"
   height="285.10101"
   viewBox="0 0 528.44421 285.10101"
   sodipodi:docname="pyser-logo.svg"
   inkscape:version="0.92.2 (5c3e80d, 2017-08-06)"
   inkscape:export-filename="/usr/home/meka/pyser-logo.png"
   inkscape:export-xdpi="200.01332"
   inkscape:export-ydpi="200.01332">
  <metadata
     id="metadata284">
    <rdf:RDF>
      <cc:Work
         rdf:about="">
        <dc:format>image/svg+xml</dc:format>
        <dc:type
           rdf:resource="http://purl.org/dc/dcmitype/StillImage" />
        <dc:title />
      </cc:Work>
    </rdf:RDF>
  </metadata>
  <defs
     id="defs282" />
  <sodipodi:namedview
     pagecolor="#ffffff"
     bordercolor="#666666"
     borderopacity="1"
     objecttolerance="10"
     gridtolerance="10"
     guidetolerance="10"
     inkscape:pageopacity="0"
     inkscape:pageshadow="2"
     inkscape:window-width="3436"
     inkscape:window-height="1401"
     id="namedview280"
     showgrid="false"
     inkscape:zoom="1.0037726"
     inkscape:cx="219.73916"
     inkscape:cy="78.38693"
     inkscape:window-x="0"
     inkscape:window-y="18"
     inkscape:window-maximized="0"
     inkscape:current-layer="svg278"
     fit-margin-top="0"
     fit-margin-left="0"
     fit-margin-right="0"
     fit-margin-bottom="0" />
  <path
     inkscape:connector-curvature="0"
     id="path352"
     d="m 193.57195,236.48965 c -12.22508,5.98905 -25.72508,12.27051 -30,13.9588 -4.27492,1.68829 -8.75003,3.70008 -9.94469,4.47065 -1.19465,0.77056 -3.55057,1.64387 -5.23536,1.94069 -1.68479,0.29682 -6.55735,1.64098 -10.82789,2.98702 -10.92545,3.44361 -31.13486,8.30508 -41.76464,10.04667 -9.64413,1.5801 -30.23441,1.80772 -37.32371,0.41261 -5.93404,-1.16778 -15.09024,-5.48757 -18.51787,-8.73654 -8.56568,-8.11918 -11.01319,-26.48443 -5.75634,-43.19346 3.41641,-10.85917 8.65829,-18.56146 21.0974,-31 12.42916,-12.4286 21.85876,-19.59639 57.79364,-43.93108 27.38174,-18.5426 36.99234,-25.87823 47.25485,-36.06892 11.54281,-11.462031 18.30187,-22.182191 21.86509,-34.678971 2.29834,-8.06065 2.78352,-4.48156 0.57191,4.21887 -5.12692,20.16916 -20.59635,38.834911 -52.98497,63.932791 -25.26566,19.57832 -47.29454,40.3447 -58.369,55.0238 -2.90312,3.84807 -7.08281,10.63794 -9.2882,15.08859 -4.94037,9.97009 -6.2224,20.74527 -3.45836,29.06699 1.87128,5.63392 7.83416,12.01586 14.11556,15.10759 14.78541,7.27744 38.96361,6.09753 66.95438,-3.26741 14.10387,-4.71876 18.33259,-6.57802 39.54562,-17.38718 10.175,-5.1847 24.8578,-12.65166 32.62844,-16.59323 16.32694,-8.28167 26.46021,-11.87145 39.549,-14.0105 5.12741,-0.83795 10.00304,-2.04709 15.07711,-2.50225 11.45675,-1.02771 34.50464,-0.49909 34.50464,-0.49909 l 102.1204,-0.25472 102.12041,-0.25471 c 0,0 -6.55621,2.73391 -16.55456,4.80026 -9.99834,2.06636 -28.64205,4.44643 -43.67584,5.50472 -15.0338,1.05829 -46.39925,0.70445 -46.39925,0.70445 0,0 -119.10712,-1.6805 -132.11292,-0.5432 -13.0058,1.13729 -42.14848,10.55008 -72.98485,25.65676 z M 354.79937,192.7425 c -3.57236,-0.5523 -12.5,-3.35761 -12.5,-3.92784 0,-1.15127 6.53581,-13.43857 7.14819,-13.43857 0.3954,0 3.07159,1.4625 5.94707,3.25 5.01205,3.11566 5.65218,3.25 15.48589,3.25 9.52872,0 10.44435,-0.17533 12.88376,-2.46704 1.74819,-1.64233 2.52727,-3.30134 2.33057,-4.96279 -0.25794,-2.17871 -1.43879,-2.88822 -9.29548,-5.58518 -10.75629,-3.6923 -12.90923,-4.80346 -14.94872,-7.71523 -3.32093,-4.7413 -0.70809,-12.79086 6.089,-18.75878 7.68812,-6.75027 18.92826,-9.62086 34.17051,-8.72673 7.88573,0.46259 15.22078,1.86429 16.988,3.24633 0.16434,0.12852 -1.16975,3.21171 -2.96463,6.85154 -3.13247,6.35233 -4.92698,7.89475 -6.40419,5.50456 -1.61151,-2.60747 -9.99969,-5.20847 -16.92997,-5.24964 -8.07229,-0.048 -12.2249,1.57978 -14.46367,5.66942 -1.42938,2.61109 -1.39886,2.90865 0.43843,4.27459 1.08612,0.80747 5.13612,2.40142 9,3.5421 16.51377,4.87515 19.97172,10.63968 12.90283,21.50945 -5.71786,8.79231 -16.39329,13.36461 -32.37759,13.86736 -5.775,0.18164 -11.85,0.12154 -13.5,-0.13355 z m 68.81524,-0.46829 c -1.75163,-0.50682 -4.56413,-2.30085 -6.25,-3.98673 -4.12884,-4.12883 -4.19748,-10.0238 -0.21439,-18.41139 6.5872,-13.87131 20.90661,-22.5 37.33901,-22.5 15.58153,0 20.28991,8.34186 12.54589,22.22762 l -2.07888,3.72763 -17.57844,0.27237 -17.57843,0.27238 -0.30523,2.63398 c -0.22146,1.91109 0.46466,3.24324 2.5,4.85397 2.50874,1.98537 3.65076,2.17065 10.80523,1.75303 5.06844,-0.29585 9.74061,-1.23704 12.75,-2.56844 2.6125,-1.15581 4.74578,-1.77996 4.74062,-1.387 -0.005,0.39295 -1.34195,3.03789 -2.97064,5.87763 -2.89656,5.05037 -3.11366,5.19783 -9.93802,6.75 -7.57805,1.72359 -18.70149,1.95056 -23.76672,0.48495 z m 31.70965,-29.46359 c 2.90971,-7.65312 -8.45887,-9.47986 -16.83025,-2.70435 -5.95986,4.82372 -5.47338,5.26982 5.74678,5.26982 9.93061,0 10.12521,-0.045 11.08347,-2.56547 z m 17.7307,24.31547 c 1.62057,-2.8875 7.11589,-12.7875 12.21181,-22 l 9.26531,-16.75 h 6.88365 c 7.08582,0 7.76987,0.47554 5.84846,4.06574 -1.3054,2.43916 -1.31065,2.43975 5.33716,-0.60371 3.04902,-1.39589 7.86098,-2.81243 10.69325,-3.14787 l 5.14959,-0.60989 -3.54075,6.39786 -3.54074,6.39787 -5.78167,0.24137 c -3.17991,0.13275 -7.66017,0.49272 -9.95612,0.79994 l -4.17446,0.55858 -8.24464,14.95006 -8.24465,14.95005 h -7.42635 -7.42636 z M 27.803,74.369069 c 2.94464,-5.6943 15.52155,-17.23491 23.09803,-21.19481 11.78647,-6.16029 15.50946,-6.85925 41.39834,-7.77219 23.50488,-0.82888 31.35067,-1.97172 37.80054,-5.50616 3.53344,-1.93627 6.19946,-4.06388 6.19946,-4.94745 0,-0.38893 -0.7875,-0.48753 -1.75,-0.2191 -5.78574,1.61353 -6.14241,1.39403 -1.36545,-0.8403 2.9615,-1.3852 6.83401,-4.05542 8.60559,-5.93384 l 3.22104,-3.4153 -0.82283,4.40439 c -1.13842,6.09367 -3.20469,9.7207 -7.61749,13.37141 -8.48338,7.01828 -25.73739,9.33219 -50.27086,6.74175 -16.72648,-1.76611 -22.21549,-1.16705 -30.93477,3.37615 -7.19658,3.7498 -12.05983,8.12148 -16.57304,14.89788 -3.00879,4.51758 -3.52346,4.94735 -2.99384,2.5 0.59872,-2.76669 0.30686,-2.60591 -4.5705,2.5178 -4.64592,4.88058 -5.01669,5.09928 -3.42422,2.01977 z"
     style="display:inline;fill:#fdd447"
     sodipodi:nodetypes="sscsssccssssssscccssssssccczzczscsscscssccscsccccssscccssscccsssscsscccsccscsccscccsscccccccsscsccscscssscsc" />
  <path
     inkscape:connector-curvature="0"
     id="path348"
     d="m 259.88574,217.15992 12.07891,-12.25 2.73958,-26.5 c 1.50676,-14.575 2.98817,-28.4125 3.29201,-30.75 l 0.55243,-4.25 h 10.36407 c 9.75132,0 10.36408,0.12012 10.36408,2.0317 0,1.11744 -1.14789,9.7199 -2.55087,19.11658 -1.40298,9.39669 -2.41548,17.7256 -2.25,18.50869 0.16759,0.79308 8.49598,-7.64206 18.80087,-19.04186 l 18.5,-20.46565 10.82999,-0.0747 10.82998,-0.0747 -4.82998,5.36171 c -2.6565,2.94888 -21.25499,22.29061 -41.32999,42.98156 l -36.5,37.61991 -11.48499,0.0184 -11.485,0.0184 12.07891,-12.25 z M 145.98128,199.188 c 2.14966,-4.00294 14.6787,-27.44453 27.84231,-52.09242 l 23.93384,-44.81433 30.00969,0.33582 c 28.50473,0.31897 30.29598,0.4504 35.7182,2.62065 10.03302,4.01574 13.87219,11.00179 11.80903,21.48864 -3.86235,19.63193 -20.59947,34.91937 -45.70814,41.74914 -5.70053,1.55059 -12.26415,2.30112 -24.30595,2.77932 l -16.49657,0.6551 -9.10978,17 -9.10978,17 -14.24567,0.27808 -14.24566,0.27808 z m 80.1501,-48.84287 c 9.43519,-3.27279 15.06608,-8.87089 17.29125,-17.19055 1.05747,-3.95379 0.99022,-4.8881 -0.51749,-7.18916 -2.48307,-3.78964 -5.83486,-4.76143 -16.96111,-4.91754 l -9.8328,-0.13796 -8.33711,15.47508 c -4.58542,8.51129 -8.094,15.86846 -7.79685,16.34925 0.87234,1.41148 20.31838,-0.36487 26.15411,-2.38912 z"
     style="display:inline;fill:#3772a2"
     sodipodi:nodetypes="ccsccssscsccccscccccsscscssscccccscccscccc" />
  <path
     inkscape:connector-curvature="0"
     id="path346"
     d="m 58.79937,284.30722 c -7.01051,-1.16884 -16.94074,-4.60128 -23.99346,-8.29347 -8.7152,-4.56252 -19.80318,-15.46351 -23.62486,-23.22643 -3.80012,-7.71914 -3.4586,-11.66586 1.38549,-16.01123 l 3.23283,-2.9 -2.89553,-0.33047 c -1.77829,-0.20295 -3.96371,0.45928 -5.66392,1.7163 l -2.7684,2.04677 -1.08607,-3.11553 c -1.5853,-4.54758 -1.32773,-11.02706 0.54461,-13.7002 2.34555,-3.34873 7.19133,-5.08456 12.28642,-4.40116 4.15803,0.55771 4.2701,0.50262 3.16785,-1.55697 -0.62848,-1.17432 -2.28148,-2.42094 -3.67334,-2.77028 -3.99987,-1.0039 -11.29419,0.1991 -13.60189,2.24328 L 0,215.87609 0.65823,210.92416 c 0.89535,-6.73573 4.24004,-13.28929 7.69389,-15.07535 3.19378,-1.65157 7.23478,-1.90449 9.76299,-0.61105 0.92634,0.47391 2.88722,1.14882 4.35751,1.49979 2.65125,0.63287 2.66141,0.61438 1.23397,-2.24699 -1.91371,-3.83611 -6.17242,-5.46453 -12.84414,-4.91126 l -5.42683,0.45004 1.93802,-3.79882 c 4.34127,-8.50961 11.24758,-14.05443 17.50537,-14.05443 3.36686,0 11.28223,3.70254 12.72005,5.95 1.60748,2.51266 2.43323,1.15866 1.30133,-2.13383 -2.32382,-6.75954 -6.68659,-9.60188 -14.80136,-9.64307 l -5.29966,-0.0269 3.5,-3.03838 c 10.57889,-9.1836 17.8755,-11.54247 24.79093,-8.01448 2.24036,1.14295 4.35397,2.53209 4.69691,3.08699 0.34295,0.5549 1.49848,1.47717 2.56785,2.04948 1.68067,0.89946 1.94431,0.70721 1.94431,-1.4179 0,-3.31582 -4.54479,-8.50589 -9.32077,-10.64416 l -3.90351,-1.74765 7.59887,-3.75557 c 10.4688,-5.17396 15.70377,-5.54241 21.62541,-1.52205 3.7598,2.55262 4.55735,2.78701 4.84864,1.42491 0.49891,-2.33295 -1.66898,-5.93328 -4.47779,-7.43651 -2.92724,-1.56661 -2.04833,-2.3012 5.4066,-4.51885 5.21433,-1.55113 5.33093,-1.53856 9.75,1.05119 l 4.47255,2.62109 v -2.41971 c 0,-1.33084 -0.675,-2.97991 -1.5,-3.6646 -0.825,-0.68469 -1.5,-1.52958 -1.5,-1.87754 0,-0.34795 2.8125,-1.71135 6.25,-3.02976 25.78825,-9.89081 47.80658,-23.25003 61.40271,-37.254981 13.91,-14.32827 21.66733,-33.56794 18.40359,-45.64439 -2.50397,-9.26514 -13.47295,-16.97546 -25.52636,-17.94299 -8.06996,-0.64778 -14.19986,0.53754 -37.52994,7.25704 -35.31588,10.17164 -49.85612,13.02716 -58.9855,11.584 -2.78061,-0.43956 -5.30457,-1.04812 -5.60881,-1.35236 -1.02438,-1.02438 2.56529,-6.61522 5.84326,-9.10077 1.78808,-1.35583 7.07605,-4.66916 11.75105,-7.36296 4.675,-2.6938 10.4122,-6.28363 12.74934,-7.97739 6.07601,-4.40339 21.37747,-10.8760102 31.80795,-13.4549802 6.90017,-1.70608998 11.91194,-2.21288998 21.94271,-2.21888997554 11.60531,-0.007000004 13.85827,0.28827999554 21,2.75183997554 9.47023,3.26677 16.03723,7.2626102 21.04439,12.8049402 5.82094,6.44309 6.90459,9.88722 6.86513,21.81919 -0.041,12.3891 -1.82833,20.11469 -7.28767,31.5 -4.82625,10.06501 -10.65393,17.77914 -21.27385,28.16035 -11.43981,11.182651 -16.69889,15.502861 -34.12486,28.032761 -44.16585,31.75683 -60.06955,44.79803 -72.5721,59.50987 -16.85059,19.82821 -23.15104,34.06601 -23.15104,52.31682 0,14.79201 3.44231,24.26276 12.04522,33.13974 8.82814,9.10938 19.5176,13.18696 37.45478,14.28739 l 12,0.73619 -10,0.0408 c -5.5,0.0224 -12.25,-0.33431 -15,-0.79281 z m 39.413,-265.019301 c 3.28278,-2.0013 3.4538,-2.01069 4.48244,-0.24626 0.93404,1.60219 1.13496,1.39867 1.587,-1.60751 0.46046,-3.06219 1.0992,-3.67535 5.78939,-5.55754 2.8995,-1.16358 6.0495,-2.9296002 7,-3.9244802 1.65674,-1.73411 1.57419,-1.78172 -1.99701,-1.1518 -6.37755,1.12492 -10.45002,3.3578002 -16.46638,9.0283002 -6.06011,5.71174 -6.20768,7.00265 -0.39544,3.45929 z"
     style="display:inline;fill:#41698c"
     sodipodi:nodetypes="csssccscccsccsccsccccccsscscccccsscscsssscssscsssscssscsccscsssssssccccccssccsc" />
</svg>
