<?xml version="1.0" encoding="UTF-8" standalone="no"?>
<!-- Created with Inkscape (http://www.inkscape.org/) -->

<svg
   xmlns:dc="http://purl.org/dc/elements/1.1/"
   xmlns:cc="http://creativecommons.org/ns#"
   xmlns:rdf="http://www.w3.org/1999/02/22-rdf-syntax-ns#"
   xmlns:svg="http://www.w3.org/2000/svg"
   xmlns="http://www.w3.org/2000/svg"
   xmlns:sodipodi="http://sodipodi.sourceforge.net/DTD/sodipodi-0.dtd"
   xmlns:inkscape="http://www.inkscape.org/namespaces/inkscape"
   width="104.85616mm"
   height="47.029495mm"
   viewBox="0 0 104.85616 47.029495"
   version="1.1"
   id="svg8"
   inkscape:version="0.92.2 (5c3e80d, 2017-08-06)"
   sodipodi:docname="vega.svg">
  <defs
     id="defs2">
    <clipPath
       id="clipPath831"
       clipPathUnits="userSpaceOnUse">
      <path
         inkscape:connector-curvature="0"
         id="path829"
         d="M 0,272.028 H 426.328 V 0 H 0 Z" />
    </clipPath>
  </defs>
  <sodipodi:namedview
     id="base"
     pagecolor="#ffffff"
     bordercolor="#666666"
     borderopacity="1.0"
     inkscape:pageopacity="0.0"
     inkscape:pageshadow="2"
     inkscape:zoom="1.4"
     inkscape:cx="190.29623"
     inkscape:cy="38.874634"
     inkscape:document-units="mm"
     inkscape:current-layer="layer1"
     showgrid="false"
     inkscape:window-width="1366"
     inkscape:window-height="745"
     inkscape:window-x="-8"
     inkscape:window-y="-8"
     inkscape:window-maximized="1" />
  <metadata
     id="metadata5">
    <rdf:RDF>
      <cc:Work
         rdf:about="">
        <dc:format>image/svg+xml</dc:format>
        <dc:type
           rdf:resource="http://purl.org/dc/dcmitype/StillImage" />
        <dc:title></dc:title>
      </cc:Work>
    </rdf:RDF>
  </metadata>
  <g
     inkscape:label="Layer 1"
     inkscape:groupmode="layer"
     id="layer1"
     transform="translate(-50.381445,-126.83049)">
    <g
       transform="matrix(0.35277777,0,0,-0.35277777,29.052027,197.12505)"
       inkscape:label="VEGA-logo-NEW2013"
       id="g823">
      <g
         id="g825">
        <g
           clip-path="url(#clipPath831)"
           id="g827">
          <g
             transform="translate(167.5225,166.3493)"
             id="g833">
            <path
               inkscape:connector-curvature="0"
               id="path835"
               style="fill:#f14624;fill-opacity:1;fill-rule:nonzero;stroke:none"
               d="m 0,0 c -2.795,-4.293 -5.564,-8.615 -8.269,-12.979 -3.468,-5.574 -6.79,-11.245 -10.016,-16.972 -0.971,0.947 -1.948,1.887 -2.887,2.871 -5.196,5.434 -9.731,11.434 -13.82,17.736 9.953,4.338 19.678,9.216 29.113,14.612 C 1.569,9.525 8.674,13.318 0,0 m -31.92,-56.255 c -0.3,-0.638 -0.588,-1.285 -0.885,-1.927 -7.212,0.786 -14.358,2.041 -21.367,3.805 -0.591,3.469 -1.162,6.942 -1.69,10.426 -1.246,8.42 -2.38,16.873 -3.329,25.336 5.709,1.912 11.368,3.977 16.96,6.223 1.281,0.519 2.549,1.074 3.824,1.611 4.561,-6.49 9.68,-12.631 15.421,-18.111 1.14,-1.092 2.32,-2.135 3.501,-3.176 -4.404,-7.919 -8.579,-15.97 -12.435,-24.187 m -9.721,-22.728 c -1.465,-3.799 -2.843,-7.613 -4.166,-11.485 -1.296,3.353 -2.315,7.076 -3.25,10.771 -0.967,3.888 -1.829,7.833 -2.629,11.792 -0.731,3.637 -1.402,7.292 -2.045,10.953 6.674,-1.374 13.422,-2.308 20.197,-2.816 -2.89,-6.319 -5.608,-12.723 -8.107,-19.215 M -61.233,4.39 c -0.23,4.032 -0.402,8.063 -0.362,12.053 0.077,7.616 1.817,9.429 5.95,1.885 1.315,-2.4 2.569,-4.835 3.885,-7.239 3.113,-5.667 6.37,-11.276 9.898,-16.733 -0.896,-0.391 -1.783,-0.798 -2.682,-1.18 -5.021,-2.155 -10.103,-4.168 -15.238,-6.049 -0.582,5.754 -1.1,11.509 -1.451,17.263 M -93.56,-35.869 c -6.706,5.074 -5.334,5.785 1.719,7.916 6.542,1.976 24.088,6.578 26.783,7.421 0.799,-8.134 1.792,-16.241 2.923,-24.335 0.359,-2.539 0.759,-5.072 1.15,-7.61 -15.42,5.5 -28.739,13.706 -32.575,16.608 M 21.154,23.023 c -0.072,0.555 -0.35,1.509 -1.119,2.286 -0.817,0.822 -1.71,1.064 -2.332,1.162 -0.584,0.078 -1.017,0.039 -1.338,-0.004 -0.664,-0.095 -1.066,-0.236 -1.438,-0.364 -1.429,-0.536 -2.337,-1.086 -3.322,-1.646 l -0.12,-0.066 -0.124,-0.089 C -4.196,13.263 -20.879,3.792 -38.301,-4.075 c -3.385,5.609 -6.503,11.393 -9.473,17.264 -1.83,3.622 -3.609,7.273 -5.358,10.941 -0.878,1.85 -1.837,3.804 -3.22,5.719 -0.359,0.485 -0.752,0.975 -1.266,1.476 -0.535,0.486 -1.129,1.067 -2.364,1.443 -0.608,0.179 -1.454,0.214 -2.202,-0.036 -0.755,-0.241 -1.302,-0.671 -1.682,-1.058 -0.748,-0.793 -1.058,-1.486 -1.332,-2.114 -0.959,-2.484 -1.152,-4.569 -1.406,-6.722 -0.211,-2.129 -0.31,-4.223 -0.364,-6.308 -0.099,-4.165 -0.013,-8.292 0.145,-12.408 0.271,-6.365 0.734,-12.7 1.282,-19.024 -3.027,-1.039 -26.797,-7.414 -35.623,-9.846 -5.9,-1.625 -9.018,-4.573 -1.352,-10.215 2.072,-1.523 20.164,-15.555 41.969,-20.422 0.732,-4.603 1.508,-9.199 2.379,-13.789 0.773,-4.042 1.603,-8.082 2.564,-12.119 0.983,-4.048 1.998,-8.056 3.584,-12.191 0.416,-1.044 0.86,-2.088 1.503,-3.223 0.334,-0.571 0.694,-1.162 1.308,-1.849 0.316,-0.342 0.693,-0.722 1.31,-1.112 0.581,-0.374 1.604,-0.815 2.814,-0.72 1.227,0.09 2.165,0.684 2.698,1.159 0.559,0.494 0.87,0.936 1.127,1.326 0.495,0.782 0.757,1.432 0.992,2.049 l 1.004,2.992 c 1.309,3.788 2.702,7.591 4.168,11.342 2.813,7.217 5.904,14.328 9.211,21.343 0.105,-0.005 0.207,-0.013 0.312,-0.016 9.899,-0.309 19.798,0.32 29.588,1.529 -9.752,-0.753 -19.538,-0.775 -29.26,-0.167 3.559,7.464 7.381,14.805 11.391,22.048 9.75,-7.671 20.44,-14.006 31.152,-20.066 -10.369,6.845 -20.812,13.762 -30.136,21.856 3.441,6.145 6.991,12.232 10.671,18.25 4.237,6.911 8.645,13.719 13.114,20.537 2.232,3.418 4.486,6.811 6.68,10.378 0.548,0.899 1.093,1.808 1.625,2.771 0.534,0.991 1.061,1.913 1.565,3.335 0.124,0.387 0.253,0.773 0.343,1.419 0.021,0.176 0.034,0.372 0.041,0.557 -0.002,0.256 -0.002,0.455 -0.047,0.769" />
          </g>
          <g
             transform="translate(194.3066,160.321)"
             id="g837">
            <path
               inkscape:connector-curvature="0"
               id="path839"
               style="fill:#393536;fill-opacity:1;fill-rule:nonzero;stroke:none"
               d="m 0,0 h 8.778 l 6.258,-29.341 h 0.113 L 22.189,0 h 8.329 L 19.841,-40.351 H 9.948 Z" />
          </g>
          <g
             transform="translate(226.7949,119.9704)"
             id="g841">
            <path
               inkscape:connector-curvature="0"
               id="path843"
               style="fill:#393536;fill-opacity:1;fill-rule:nonzero;stroke:none"
               d="M 0,0 V 40.351 H 22.021 V 34.148 H 8.438 V 24.201 H 20.956 V 17.996 H 8.438 V 6.202 h 14.03 V 0 Z" />
          </g>
          <g
             transform="translate(269.7695,147.9138)"
             id="g845">
            <path
               inkscape:connector-curvature="0"
               id="path847"
               style="fill:#393536;fill-opacity:1;fill-rule:nonzero;stroke:none"
               d="m 0,0 c 0.055,3.745 -0.56,7.042 -5.033,7.042 -5.252,0 -5.252,-7.097 -5.252,-14.922 0,-12.63 1.229,-14.867 6.035,-14.867 1.397,0 2.908,0.337 4.191,0.783 v 8.941 h -4.583 v 6.206 H 8.382 v -20.455 c -2.293,-0.449 -8.05,-1.343 -11.404,-1.343 -14.193,0 -15.813,5.868 -15.813,21.181 0,10.174 0.5,20.513 14.308,20.513 8.268,0 13.41,-4.64 12.909,-13.079 z" />
          </g>
          <g
             transform="translate(296.834,152.5529)"
             id="g849">
            <path
               inkscape:connector-curvature="0"
               id="path851"
               style="fill:#393536;fill-opacity:1;fill-rule:nonzero;stroke:none"
               d="m 0,0 h -0.109 l -3.86,-17.438 H 4.082 Z M -16.265,-32.583 -5.083,7.768 H 6.033 L 16.992,-32.583 H 8.104 L 5.87,-23.641 H -5.644 l -2.293,-8.942 z" />
          </g>
          <path
             inkscape:connector-curvature="0"
             id="path853"
             style="fill:#f14624;fill-opacity:1;fill-rule:nonzero;stroke:none"
             d="m 319.736,160.32 h 8.437 v -40.351 h -8.437 z" />
          <g
             transform="translate(357.6914,160.321)"
             id="g855">
            <path
               inkscape:connector-curvature="0"
               id="path857"
               style="fill:#f14624;fill-opacity:1;fill-rule:nonzero;stroke:none"
               d="m 0,0 v -6.705 h -9.393 v -33.646 h -8.437 v 33.646 h -9.389 V 0 Z" />
          </g>
          <g
             transform="translate(209.0176,104.1208)"
             id="g859">
            <path
               inkscape:connector-curvature="0"
               id="path861"
               style="fill:#a7a5a6;fill-opacity:1;fill-rule:nonzero;stroke:none"
               d="m 0,0 c -1.136,0.275 -1.878,0.531 -2.227,0.77 -0.349,0.237 -0.523,0.58 -0.523,1.031 0,0.447 0.174,0.783 0.523,1.006 0.349,0.221 0.795,0.333 1.339,0.333 0.545,0 1.097,-0.097 1.656,-0.286 C 1.329,2.663 1.771,2.42 2.1,2.125 l 0.999,1.41 C 2.592,3.958 1.989,4.285 1.291,4.518 0.595,4.75 -0.108,4.866 -0.817,4.866 -1.916,4.866 -2.838,4.59 -3.582,4.034 -4.328,3.48 -4.699,2.69 -4.699,1.664 c 0,-1.023 0.326,-1.784 0.981,-2.281 0.328,-0.265 0.703,-0.48 1.126,-0.643 0.422,-0.164 1.041,-0.344 1.855,-0.54 0.813,-0.193 1.387,-0.411 1.719,-0.647 0.334,-0.239 0.5,-0.573 0.5,-1 0,-0.428 -0.177,-0.773 -0.531,-1.03 -0.354,-0.259 -0.832,-0.388 -1.435,-0.388 -1.205,0 -2.368,0.484 -3.487,1.458 l -1.172,-1.411 c 1.341,-1.195 2.879,-1.791 4.612,-1.791 1.184,0 2.14,0.3 2.868,0.902 0.731,0.603 1.094,1.389 1.094,2.355 0,0.967 -0.288,1.699 -0.863,2.196 C 1.992,-0.659 1.135,-0.274 0,0" />
          </g>
          <g
             transform="translate(231.6768,100.4128)"
             id="g863">
            <path
               inkscape:connector-curvature="0"
               id="path865"
               style="fill:#a7a5a6;fill-opacity:1;fill-rule:nonzero;stroke:none"
               d="m 0,0 c -0.756,-0.783 -1.685,-1.175 -2.783,-1.175 -1.099,0 -2.027,0.392 -2.783,1.175 -0.754,0.781 -1.132,1.729 -1.132,2.844 0,1.116 0.378,2.063 1.132,2.845 0.756,0.783 1.684,1.173 2.783,1.173 1.098,0 2.027,-0.39 2.783,-1.173 C 0.755,4.907 1.133,3.96 1.133,2.844 1.133,1.729 0.755,0.781 0,0 m -2.783,8.574 c -1.649,0 -3.033,-0.546 -4.153,-1.639 -1.121,-1.094 -1.68,-2.458 -1.68,-4.091 0,-1.631 0.559,-2.995 1.68,-4.089 1.12,-1.095 2.504,-1.642 4.153,-1.642 1.649,0 3.033,0.547 4.153,1.642 1.121,1.094 1.681,2.458 1.681,4.089 0,1.633 -0.56,2.997 -1.681,4.091 -1.12,1.093 -2.504,1.639 -4.153,1.639" />
          </g>
          <g
             transform="translate(252.8535,102.5837)"
             id="g867">
            <path
               inkscape:connector-curvature="0"
               id="path869"
               style="fill:#a7a5a6;fill-opacity:1;fill-rule:nonzero;stroke:none"
               d="m 0,0 c 0,-1.015 -0.254,-1.818 -0.762,-2.41 -0.506,-0.592 -1.194,-0.887 -2.059,-0.887 -0.867,0 -1.555,0.295 -2.062,0.887 -0.508,0.592 -0.761,1.395 -0.761,2.41 v 6.135 h -1.871 v -6.214 c 0,-1.595 0.439,-2.825 1.317,-3.686 0.877,-0.861 2.003,-1.293 3.377,-1.293 1.372,0 2.498,0.432 3.376,1.293 0.877,0.861 1.315,2.091 1.315,3.686 V 6.135 H 0 Z" />
          </g>
          <g
             transform="translate(269.5352,103.0593)"
             id="g871">
            <path
               inkscape:connector-curvature="0"
               id="path873"
               style="fill:#a7a5a6;fill-opacity:1;fill-rule:nonzero;stroke:none"
               d="m 0,0 h -2.33 v 3.963 h 2.379 c 1.003,0 1.7,-0.136 2.092,-0.404 C 2.531,3.289 2.728,2.792 2.728,2.068 2.728,1.344 2.536,0.818 2.156,0.491 1.776,0.164 1.058,0 0,0 M 4.646,2.061 C 4.646,3.318 4.28,4.232 3.552,4.804 2.823,5.373 1.611,5.659 -0.078,5.659 H -4.199 V -5.422 h 1.869 v 3.727 h 2.459 l 2.646,-3.727 h 2.377 l -2.901,4.026 c 1.597,0.476 2.395,1.628 2.395,3.457" />
          </g>
          <g
             transform="translate(291.2119,107.1491)"
             id="g875">
            <path
               inkscape:connector-curvature="0"
               id="path877"
               style="fill:#a7a5a6;fill-opacity:1;fill-rule:nonzero;stroke:none"
               d="m 0,0 c 0.635,0 1.186,-0.102 1.655,-0.302 0.472,-0.2 0.971,-0.555 1.499,-1.062 l 1.189,1.3 C 3.19,1.205 1.757,1.838 0.04,1.838 c -1.718,0 -3.14,-0.549 -4.265,-1.648 -1.126,-1.099 -1.687,-2.472 -1.687,-4.122 0,-1.647 0.552,-3.011 1.655,-4.089 1.106,-1.078 2.494,-1.618 4.17,-1.618 1.675,0 3.099,0.652 4.272,1.95 L 2.98,-6.451 C 2.473,-6.928 1.986,-7.273 1.522,-7.49 1.056,-7.706 0.502,-7.815 -0.143,-7.815 c -1.036,0 -1.93,0.378 -2.686,1.133 -0.756,0.755 -1.135,1.696 -1.135,2.822 0,1.125 0.382,2.049 1.143,2.774 C -2.06,-0.363 -1.12,0 0,0" />
          </g>
          <path
             inkscape:connector-curvature="0"
             id="path879"
             style="fill:#a7a5a6;fill-opacity:1;fill-rule:nonzero;stroke:none"
             d="m 305.909,97.637 h 1.87 v 11.081 h -1.87 z" />
          <g
             transform="translate(326.6973,100.4431)"
             id="g881">
            <path
               inkscape:connector-curvature="0"
               id="path883"
               style="fill:#a7a5a6;fill-opacity:1;fill-rule:nonzero;stroke:none"
               d="m 0,0 -6.436,8.275 h -1.87 V -2.806 h 1.87 v 8.085 l 6.277,-8.085 H 1.87 V 8.275 H 0 Z" />
          </g>
          <g
             transform="translate(346.5215,103.03)"
             id="g885">
            <path
               inkscape:connector-curvature="0"
               id="path887"
               style="fill:#a7a5a6;fill-opacity:1;fill-rule:nonzero;stroke:none"
               d="M 0,0 V -1.87 H 0.916 V -3.046 C 0.207,-3.5 -0.672,-3.728 -1.725,-3.728 c -1.05,0 -1.945,0.357 -2.684,1.071 -0.741,0.713 -1.111,1.659 -1.111,2.836 0,1.178 0.379,2.13 1.142,2.854 0.761,0.724 1.7,1.086 2.82,1.086 0.581,0 1.091,-0.071 1.531,-0.214 C 0.411,3.763 0.847,3.506 1.28,3.136 L 2.278,4.562 C 1.223,5.493 -0.103,5.957 -1.699,5.957 -3.295,5.957 -4.656,5.408 -5.781,4.31 -6.907,3.21 -7.47,1.837 -7.47,0.187 c 0,-1.647 0.553,-3.011 1.657,-4.089 1.104,-1.077 2.475,-1.618 4.114,-1.618 1.944,0 3.438,0.577 4.485,1.729 V -1.87 -0.003 0 Z" />
          </g>
        </g>
      </g>
    </g>
  </g>
</svg>
