<?xml version="1.0" encoding="UTF-8" standalone="no"?>
<!-- Created with Inkscape (http://www.inkscape.org/) -->

<svg
   xmlns:dc="http://purl.org/dc/elements/1.1/"
   xmlns:cc="http://creativecommons.org/ns#"
   xmlns:rdf="http://www.w3.org/1999/02/22-rdf-syntax-ns#"
   xmlns:svg="http://www.w3.org/2000/svg"
   xmlns="http://www.w3.org/2000/svg"
   xmlns:sodipodi="http://sodipodi.sourceforge.net/DTD/sodipodi-0.dtd"
   xmlns:inkscape="http://www.inkscape.org/namespaces/inkscape"
   width="259.15692mm"
   height="54.893257mm"
   viewBox="0 0 259.15692 54.893259"
   version="1.1"
   id="svg8"
   inkscape:version="0.92.2 (5c3e80d, 2017-08-06)"
   sodipodi:docname="viselio.svg">
  <defs
     id="defs2">
    <clipPath
       id="clipPath4522"
       clipPathUnits="userSpaceOnUse">
      <path
         inkscape:connector-curvature="0"
         id="path4520"
         d="M 0,677 H 1722.596 V 0 H 0 Z" />
    </clipPath>
  </defs>
  <sodipodi:namedview
     id="base"
     pagecolor="#ffffff"
     bordercolor="#666666"
     borderopacity="1.0"
     inkscape:pageopacity="0.0"
     inkscape:pageshadow="2"
     inkscape:zoom="0.35"
     inkscape:cx="-628.3795"
     inkscape:cy="-18.116445"
     inkscape:document-units="mm"
     inkscape:current-layer="layer1"
     showgrid="false"
     inkscape:window-width="3436"
     inkscape:window-height="1401"
     inkscape:window-x="0"
     inkscape:window-y="18"
     inkscape:window-maximized="0"
     fit-margin-top="0"
     fit-margin-left="0"
     fit-margin-right="0"
     fit-margin-bottom="0" />
  <metadata
     id="metadata5">
    <rdf:RDF>
      <cc:Work
         rdf:about="">
        <dc:format>image/svg+xml</dc:format>
        <dc:type
           rdf:resource="http://purl.org/dc/dcmitype/StillImage" />
        <dc:title></dc:title>
      </cc:Work>
    </rdf:RDF>
  </metadata>
  <g
     inkscape:label="Layer 1"
     inkscape:groupmode="layer"
     id="layer1"
     transform="translate(-10.464326,-47.866276)"
     style="display:inline">
    <g
       style="display:inline"
       id="g4516"
       transform="matrix(0.1570401,0,0,-0.1570401,5.7889748,129.19805)">
      <g
         id="g4518"
         clip-path="url(#clipPath4522)">
        <g
           id="g4524"
           transform="translate(490.7427,284.4102)">
          <path
             d="m 0,0 c 0,4.379 -0.633,8.546 -1.099,12.783 h -144.388 c -6.894,-40.807 -42.178,-72.011 -85.001,-72.011 -42.778,0 -78.072,31.204 -84.952,72.011 h -144.429 c -0.466,-4.237 -1.102,-8.404 -1.102,-12.783 0,-61.854 48.523,-111.901 109.488,-115.386 v -0.669 h 242.004 v 0.669 C -48.525,-111.901 0,-61.854 0,0"
             style="fill:#236caa;fill-opacity:1;fill-rule:nonzero;stroke:none"
             id="path4526"
             inkscape:connector-curvature="0" />
        </g>
        <g
           id="g4528"
           transform="translate(260.2549,253.9902)">
          <path
             d="m 0,0 c 31.838,0 57.625,25.767 57.625,57.608 0,31.851 -25.787,57.627 -57.625,57.627 -31.833,0 -57.623,-25.776 -57.623,-57.627 C -57.623,25.767 -31.833,0 0,0"
             style="fill:#fbaa18;fill-opacity:1;fill-rule:nonzero;stroke:none"
             id="path4530"
             inkscape:connector-curvature="0" />
        </g>
        <g
           id="g4532"
           transform="translate(345.2559,326.0059)">
          <path
             d="m 0,0 h 137.537 c -13.631,35.148 -43.794,62.019 -81.07,70.96 -12.648,66.686 -71.085,117.158 -141.468,117.158 -70.378,0 -128.802,-50.472 -141.45,-117.158 C -263.737,62.019 -293.905,35.148 -307.533,0 h 137.58 c 6.88,40.853 42.174,72.032 84.952,72.032 C -42.178,72.032 -6.894,40.853 0,0"
             style="fill:#236caa;fill-opacity:1;fill-rule:nonzero;stroke:none"
             id="path4534"
             inkscape:connector-curvature="0" />
        </g>
        <g
           id="g4536"
           transform="translate(884.8033,232.2432)">
          <path
             d="m 0,0 c -2.967,-0.536 -7.34,-1.273 -13.126,-2.22 -5.794,-0.941 -11.652,-1.413 -17.572,-1.413 -5.925,0 -11.243,0.404 -15.951,1.21 -4.714,0.81 -8.683,2.423 -11.916,4.847 -3.23,2.423 -5.724,5.718 -7.471,9.895 -1.754,4.171 -2.625,9.625 -2.625,16.359 v 164.378 c 2.961,0.536 7.335,1.275 13.126,2.221 5.787,0.941 11.643,1.414 17.569,1.414 5.92,0 11.239,-0.404 15.954,-1.212 4.706,-0.807 8.683,-2.423 11.913,-4.846 3.232,-2.424 5.717,-5.724 7.472,-9.894 C -0.877,176.56 0,171.107 0,164.38 Z"
             style="fill:#236caa;fill-opacity:1;fill-rule:nonzero;stroke:none"
             id="path4538"
             inkscape:connector-curvature="0" />
        </g>
        <g
           id="g4540"
           transform="translate(1073.8188,290.4043)">
          <path
             d="m 0,0 c 0,-20.467 -7.673,-36.488 -23.022,-48.063 -15.347,-11.574 -37.963,-17.366 -67.852,-17.366 -11.309,0 -21.811,0.807 -31.503,2.423 -9.693,1.615 -17.974,4.107 -24.839,7.471 -6.864,3.364 -12.254,7.605 -16.154,12.722 -3.906,5.112 -5.857,11.17 -5.857,18.175 0,6.463 1.344,11.915 4.039,16.358 2.689,4.442 5.92,8.138 9.694,11.106 7.806,-4.309 16.761,-8.147 26.858,-11.51 10.095,-3.369 21.742,-5.048 34.934,-5.048 8.342,0 14.743,1.21 19.185,3.634 4.443,2.423 6.665,5.655 6.665,9.694 0,3.766 -1.616,6.725 -4.848,8.885 -3.23,2.152 -8.618,3.899 -16.155,5.25 l -12.115,2.424 c -23.426,4.574 -40.862,11.774 -52.303,21.607 -11.448,9.826 -17.165,23.892 -17.165,42.206 0,9.957 2.151,18.983 6.461,27.058 4.304,8.079 10.363,14.807 18.176,20.196 7.806,5.382 17.165,9.554 28.069,12.52 10.906,2.959 22.951,4.443 36.147,4.443 9.961,0 19.317,-0.745 28.069,-2.222 8.748,-1.483 16.359,-3.704 22.82,-6.664 6.462,-2.965 11.574,-6.802 15.347,-11.511 3.768,-4.715 5.655,-10.299 5.655,-16.762 0,-6.195 -1.149,-11.51 -3.432,-15.953 -2.291,-4.441 -5.187,-8.146 -8.684,-11.105 -2.158,1.344 -5.389,2.757 -9.693,4.239 -4.31,1.478 -9.025,2.829 -14.136,4.041 -5.119,1.211 -10.299,2.221 -15.55,3.027 -5.248,0.81 -10.035,1.214 -14.339,1.214 -8.883,0 -15.749,-1.01 -20.595,-3.03 -4.847,-2.019 -7.27,-5.188 -7.27,-9.491 0,-2.966 1.344,-5.389 4.038,-7.271 2.687,-1.887 7.806,-3.634 15.348,-5.25 l 12.521,-2.826 C -45.639,58.693 -27.263,50.547 -16.358,40.184 -5.453,29.816 0,16.418 0,0"
             style="fill:#236caa;fill-opacity:1;fill-rule:nonzero;stroke:none"
             id="path4542"
             inkscape:connector-curvature="0" />
        </g>
        <g
           id="g4544"
           transform="translate(1181.2407,384.1035)">
          <path
             d="m 0,0 c -6.462,0 -12.051,-1.078 -16.762,-3.23 -4.712,-2.16 -8.549,-4.916 -11.509,-8.28 -2.964,-3.371 -5.188,-7.139 -6.664,-11.309 -1.484,-4.178 -2.362,-8.418 -2.625,-12.722 l 69.064,11.309 C 30.695,-18.85 27.729,-13.467 22.619,-8.077 17.499,-2.694 9.961,0 0,0 m 11.311,-158.727 c -15.892,0 -30.634,2.223 -44.226,6.665 -13.601,4.442 -25.445,11.108 -35.542,19.993 -10.097,8.886 -18.042,20.054 -23.83,33.522 -5.793,13.461 -8.684,29.212 -8.684,47.254 0,17.771 2.891,33.049 8.684,45.842 5.788,12.784 13.392,23.285 22.82,31.502 9.421,8.208 20.195,14.268 32.309,18.175 12.12,3.899 24.499,5.855 37.158,5.855 14.269,0 27.265,-2.157 38.977,-6.462 11.711,-4.31 21.807,-10.235 30.291,-17.771 8.479,-7.54 15.074,-16.559 19.788,-27.058 4.707,-10.501 7.069,-21.95 7.069,-34.331 0,-9.156 -2.562,-16.156 -7.674,-21.002 -5.119,-4.847 -12.256,-7.946 -21.406,-9.289 l -99.757,-14.945 c 2.958,-8.884 9.016,-15.548 18.174,-19.991 9.149,-4.442 19.652,-6.664 31.503,-6.664 11.034,0 21.468,1.412 31.3,4.241 9.827,2.828 17.833,6.122 24.031,9.896 4.303,-2.696 7.937,-6.463 10.903,-11.309 2.959,-4.847 4.446,-9.966 4.446,-15.348 0,-12.117 -5.657,-21.142 -16.965,-27.062 -8.62,-4.581 -18.314,-7.672 -29.079,-9.289 -10.773,-1.614 -20.87,-2.424 -30.29,-2.424"
             style="fill:#236caa;fill-opacity:1;fill-rule:nonzero;stroke:none"
             id="path4546"
             inkscape:connector-curvature="0" />
        </g>
        <g
           id="g4548"
           transform="translate(1360.1577,232.2432)">
          <path
             d="m 0,0 c -2.966,-0.536 -7.337,-1.273 -13.125,-2.22 -5.792,-0.941 -11.648,-1.413 -17.568,-1.413 -5.927,0 -11.245,0.404 -15.955,1.21 -4.712,0.81 -8.683,2.423 -11.915,4.847 -3.231,2.423 -5.723,5.718 -7.47,9.895 -1.755,4.171 -2.626,9.625 -2.626,16.359 v 234.251 c 2.962,0.537 7.333,1.273 13.127,2.22 5.786,0.94 11.641,1.413 17.568,1.413 5.92,0 11.238,-0.403 15.953,-1.21 4.707,-0.809 8.683,-2.423 11.916,-4.847 3.231,-2.423 5.716,-5.726 7.47,-9.896 C -0.877,246.432 0,240.979 0,234.252 Z"
             style="fill:#236caa;fill-opacity:1;fill-rule:nonzero;stroke:none"
             id="path4550"
             inkscape:connector-curvature="0" />
        </g>
        <g
           id="g4552"
           transform="translate(1453.4556,232.2432)">
          <path
             d="m 0,0 c -2.967,-0.536 -7.34,-1.273 -13.127,-2.22 -5.793,-0.941 -11.649,-1.413 -17.57,-1.413 -5.924,0 -11.243,0.404 -15.95,1.21 -4.716,0.81 -8.685,2.423 -11.916,4.847 -3.231,2.423 -5.723,5.718 -7.474,9.895 -1.752,4.171 -2.624,9.625 -2.624,16.359 v 164.378 c 2.96,0.536 7.334,1.275 13.126,2.221 5.788,0.941 11.644,1.414 17.569,1.414 5.92,0 11.24,-0.404 15.953,-1.212 4.707,-0.807 8.686,-2.423 11.914,-4.846 3.232,-2.424 5.718,-5.724 7.473,-9.894 C -0.877,176.56 0,171.107 0,164.38 Z"
             style="fill:#236caa;fill-opacity:1;fill-rule:nonzero;stroke:none"
             id="path4554"
             inkscape:connector-curvature="0" />
        </g>
        <g
           id="g4556"
           transform="translate(1538.6733,329.9844)">
          <path
             d="m 0,0 c 0,-16.428 3.161,-29.016 9.491,-37.764 6.323,-8.753 15.147,-13.125 26.453,-13.125 11.31,0 19.994,4.443 26.052,13.327 6.059,8.886 9.087,21.405 9.087,37.562 0,16.155 -3.1,28.605 -9.288,37.357 C 55.596,46.104 46.851,50.485 35.541,50.485 24.233,50.485 15.479,46.104 9.289,37.357 3.092,28.605 0,16.155 0,0 m 141.358,0 c 0,-16.699 -2.562,-31.572 -7.672,-44.63 -5.119,-13.063 -12.321,-24.029 -21.61,-32.917 -9.291,-8.883 -20.393,-15.616 -33.319,-20.194 -12.924,-4.574 -27.331,-6.866 -43.216,-6.866 -15.891,0 -30.29,2.423 -43.215,7.27 -12.924,4.849 -24.029,11.776 -33.32,20.801 -9.288,9.016 -16.496,19.991 -21.607,32.916 -5.12,12.925 -7.673,27.463 -7.673,43.62 0,15.883 2.553,30.291 7.673,43.213 5.111,12.925 12.319,23.893 21.607,32.917 9.291,9.018 20.396,15.954 33.32,20.801 12.925,4.847 27.324,7.269 43.215,7.269 15.885,0 30.292,-2.491 43.216,-7.472 12.926,-4.985 24.028,-11.984 33.319,-21.001 9.289,-9.025 16.491,-19.993 21.61,-32.915 5.11,-12.925 7.672,-27.201 7.672,-42.812"
             style="fill:#236caa;fill-opacity:1;fill-rule:nonzero;stroke:none"
             id="path4558"
             inkscape:connector-curvature="0" />
        </g>
        <g
           id="g4560"
           transform="translate(1451.5474,484.4775)">
          <path
             d="m 0,0 c 0,-18.46 -14.966,-33.426 -33.425,-33.426 -18.462,0 -33.428,14.966 -33.428,33.426 0,18.462 14.966,33.427 33.428,33.427 C -14.966,33.427 0,18.462 0,0"
             style="fill:#fbaa18;fill-opacity:1;fill-rule:nonzero;stroke:none"
             id="path4562"
             inkscape:connector-curvature="0" />
        </g>
        <g
           id="g4564"
           transform="translate(879.3121,483.04)">
          <path
             d="m 0,0 c 0,-18.461 -14.965,-33.426 -33.426,-33.426 -18.461,0 -33.427,14.965 -33.427,33.426 0,18.462 14.966,33.426 33.427,33.426 C -14.965,33.426 0,18.462 0,0"
             style="fill:#fbaa18;fill-opacity:1;fill-rule:nonzero;stroke:none"
             id="path4566"
             inkscape:connector-curvature="0" />
        </g>
        <g
           id="g4568"
           transform="translate(677.3248,371.042)">
          <path
             d="m 0,0 c 0,0 24.171,73.513 117.487,42.294 0,0 -44.31,-115.472 -67.135,-114.128 C 27.525,-70.492 10.407,-26.182 0,0"
             style="fill:#236caa;fill-opacity:1;fill-rule:nonzero;stroke:none"
             id="path4570"
             inkscape:connector-curvature="0" />
        </g>
        <g
           style="display:inline"
           id="g4572"
           transform="translate(532.9009,413.3359)">
          <path
             d="m 0,0 c 0,0 44.562,23.664 87.611,-4.783 0,0 17.539,-13.007 36.505,-48.425 0,0 18.295,-36.753 20.308,-41.117 0,0 13.26,-29.871 22.826,-35.243 0,0 9.398,-9.735 25.345,-3.356 0,0 -30.379,-51.688 -66.296,-49.171 0,0 -32.226,-0.337 -55.22,39.442 z"
             style="fill:#236caa;fill-opacity:1;fill-rule:nonzero;stroke:none"
             id="path4574"
             inkscape:connector-curvature="0" />
        </g>
      </g>
    </g>
  </g>
</svg>
