<?xml version="1.0" encoding="UTF-8" standalone="no"?>
<!-- Created with Inkscape (http://www.inkscape.org/) -->

<svg
   xmlns:dc="http://purl.org/dc/elements/1.1/"
   xmlns:cc="http://creativecommons.org/ns#"
   xmlns:rdf="http://www.w3.org/1999/02/22-rdf-syntax-ns#"
   xmlns:svg="http://www.w3.org/2000/svg"
   xmlns="http://www.w3.org/2000/svg"
   xmlns:sodipodi="http://sodipodi.sourceforge.net/DTD/sodipodi-0.dtd"
   xmlns:inkscape="http://www.inkscape.org/namespaces/inkscape"
   width="182.02994mm"
   height="151.68224mm"
   viewBox="0 0 182.02994 151.68224"
   version="1.1"
   id="svg8"
   inkscape:version="0.92.1 r15371"
   sodipodi:docname="codeconsulting.svg">
  <defs
     id="defs2" />
  <sodipodi:namedview
     id="base"
     pagecolor="#ffffff"
     bordercolor="#666666"
     borderopacity="1.0"
     inkscape:pageopacity="0.0"
     inkscape:pageshadow="2"
     inkscape:zoom="0.5"
     inkscape:cx="242.99001"
     inkscape:cy="371.68882"
     inkscape:document-units="mm"
     inkscape:current-layer="layer1"
     showgrid="false"
     inkscape:window-width="1600"
     inkscape:window-height="878"
     inkscape:window-x="-8"
     inkscape:window-y="-8"
     inkscape:window-maximized="1" />
  <metadata
     id="metadata5">
    <rdf:RDF>
      <cc:Work
         rdf:about="">
        <dc:format>image/svg+xml</dc:format>
        <dc:type
           rdf:resource="http://purl.org/dc/dcmitype/StillImage" />
        <dc:title></dc:title>
      </cc:Work>
    </rdf:RDF>
  </metadata>
  <g
     inkscape:label="Layer 1"
     inkscape:groupmode="layer"
     id="layer1"
     transform="translate(-10.280951,-74.5224)">
    <path
       style="display:inline;fill:#f59a30;fill-opacity:1;stroke-width:0.35277778"
       d="m 73.075398,225.79853 c -2.718591,-1.0764 -4.870909,-4.93071 -4.453594,-7.97537 0.827864,-6.03993 8.229621,-8.85829 12.792248,-4.8709 1.280834,1.11935 1.327076,1.22748 0.769394,1.79907 -0.560775,0.57478 -0.653609,0.55744 -1.69159,-0.31597 -4.024905,-3.38673 -10.021588,-0.78454 -10.021588,4.34875 0,5.22974 6.38629,7.8066 10.280502,4.14818 0.751314,-0.70583 0.845517,-0.71737 1.392347,-0.17054 0.546827,0.54683 0.540367,0.63753 -0.09547,1.34059 -1.285209,1.42108 -3.132152,2.09167 -5.695005,2.06774 -1.317417,-0.0123 -2.79218,-0.17949 -3.277249,-0.37155 z m 15.522223,-0.4002 c -0.873125,-0.46615 -2.063751,-1.52373 -2.645834,-2.35016 -0.957816,-1.3599 -1.058333,-1.76488 -1.058333,-4.26406 0,-2.50706 0.09894,-2.90236 1.073996,-4.29114 1.527729,-2.17594 3.674492,-3.28483 6.334337,-3.27195 5.84011,0.0283 9.310833,5.72459 6.691098,10.98172 -1.320775,2.65045 -3.123375,3.77285 -6.302047,3.924 -2.112437,0.10045 -2.754881,-0.0139 -4.093217,-0.72841 z m 5.115278,-1.00461 c 2.536281,-0.68961 4.409722,-3.11936 4.409722,-5.71918 0,-1.90056 -1.395952,-4.14197 -3.160896,-5.07529 -1.932189,-1.02177 -3.320648,-1.02663 -5.317762,-0.0186 -2.899184,1.46333 -4.029985,5.17028 -2.433578,7.97767 1.061258,1.86628 2.321497,2.68293 4.915013,3.18495 0.09701,0.0188 0.811389,-0.13851 1.587501,-0.34954 z m 23.248051,0.59928 c -1.33046,-1.33046 -1.43803,-1.69115 -0.68958,-2.31231 0.41387,-0.34348 0.70234,-0.20772 1.5323,0.72116 1.72479,1.93038 4.39604,1.3534 4.39604,-0.94953 0,-0.7717 -0.61133,-1.55407 -2.86632,-3.66829 -3.05315,-2.86254 -3.41263,-3.70661 -2.46467,-5.78715 0.40516,-0.88922 2.21037,-1.97388 3.28515,-1.97388 0.81718,0 2.36397,0.84852 3.16962,1.73876 0.63505,0.70173 0.64146,0.79233 0.0946,1.33916 -0.54683,0.54683 -0.64071,0.53689 -1.38753,-0.14683 -1.21818,-1.11523 -2.17305,-1.27838 -3.09809,-0.52933 -1.24381,1.00718 -0.72197,2.20872 1.80313,4.15174 3.30198,2.54081 4.10303,4.29543 2.9654,6.49538 -0.78242,1.51302 -1.87684,2.12057 -3.81996,2.12057 -1.48647,0 -1.88393,-0.16326 -2.92012,-1.19945 z m 12.12236,0.64721 c -1.78037,-0.96601 -2.03291,-2.01581 -2.03291,-8.45061 v -5.86289 l 0.79375,0.11273 c 0.77842,0.11055 0.7954,0.21495 0.87926,5.4044 0.047,2.91041 0.17174,5.65931 0.27713,6.10866 0.23438,0.99922 2.27068,1.93396 3.52647,1.61878 0.4865,-0.12211 1.19954,-0.62245 1.58453,-1.11189 0.6313,-0.80258 0.69997,-1.43892 0.69997,-6.48674 v -5.59687 h 0.88195 0.88194 v 5.47939 c 0,6.0142 -0.284,7.26587 -1.9451,8.57249 -1.16642,0.9175 -4.04451,1.02779 -5.54699,0.21255 z m 51.05712,-0.10569 c -4.15536,-1.88774 -5.59623,-6.88947 -3.1326,-10.87429 2.47844,-4.00878 8.43265,-4.67248 12.57243,-1.40142 0.75192,0.59413 0.78219,1.06879 0.10405,1.63159 -0.4131,0.34284 -0.74152,0.25196 -1.68209,-0.46544 -1.78835,-1.36405 -4.10008,-1.87137 -5.97612,-1.31151 -2.14054,0.6388 -4.06106,2.72502 -4.36316,4.73962 -0.83721,5.58288 6.68664,9.18389 10.38579,4.97079 1.68472,-1.91878 1.4922,-2.27586 -1.22703,-2.27586 -2.20164,0 -2.31195,-0.0397 -2.20486,-0.79375 0.10654,-0.75015 0.29457,-0.79935 3.42323,-0.89581 l 3.3105,-0.10206 -0.24192,1.51317 c -0.37174,2.3252 -1.71866,4.32748 -3.48686,5.18346 -1.971,0.95414 -5.47643,0.99233 -7.48136,0.0815 z m -77.78448,-6.9268 c 0,-3.97757 0.12893,-7.23194 0.2865,-7.23194 0.15757,0 2.34038,2.38083 4.85069,5.29073 l 4.5642,5.29073 0.0975,-5.31405 c 0.0966,-5.26592 0.10461,-5.31303 0.88195,-5.20253 0.77757,0.11053 0.78527,0.17395 0.87993,7.25526 0.0748,5.59371 -0.002,7.14283 -0.35277,7.13954 -0.24656,-0.002 -2.43266,-2.30462 -4.85801,-5.11624 l -4.40972,-5.11205 -0.0976,5.11625 -0.0976,5.11625 h -0.87251 -0.87252 z m 37.39445,0 v -7.23194 h 0.88194 0.88195 v 6.52639 6.52639 h 2.64583 c 2.41065,0 2.64584,0.0627 2.64584,0.70555 0,0.65852 -0.23519,0.70556 -3.52778,0.70556 h -3.52778 z m 10.93611,0.88195 v -6.35 h -1.5875 c -1.45815,0 -1.5875,-0.0719 -1.5875,-0.88195 v -0.88194 h 4.05695 4.05694 v 0.88194 c 0,0.81009 -0.12935,0.88195 -1.5875,0.88195 h -1.5875 v 6.35 6.35 h -0.88194 -0.88195 z m 6.35,-0.88195 v -7.23194 h 0.88195 0.88194 v 7.23194 7.23195 h -0.88194 -0.88195 z m 4.58611,0.19721 c 0,-3.8691 0.14418,-7.12384 0.32039,-7.23274 0.17621,-0.10891 2.35902,2.16449 4.85069,5.052 l 4.53031,5.25 0.0974,-5.2492 0.0974,-5.24921 h 0.87276 0.87275 v 7.23194 c 0,5.56088 -0.10189,7.22739 -0.44097,7.21224 -0.24254,-0.0108 -2.42535,-2.3279 -4.8507,-5.14903 l -4.40972,-5.12934 -0.0976,5.14904 -0.0976,5.14904 h -0.87251 -0.87252 z m -31.04444,-22.63679 c -11.4157,-1.29198 -22.56813,-6.08913 -30.907341,-13.29463 -2.875164,-2.48429 -6.859281,-7.18062 -6.260874,-7.38008 0.869597,-0.28987 5.323914,-3.0876 6.759095,-4.24536 l 1.51728,-1.22397 3.77439,3.67585 c 6.90007,6.71994 13.34848,10.22594 22.404,12.18107 4.37092,0.9437 15.14263,0.85589 19.47039,-0.15872 9.21918,-2.16136 16.2976,-6.21878 22.76079,-13.04669 7.42898,-7.8482 10.80505,-15.77224 11.1873,-26.25792 0.21056,-5.77584 -0.17922,-9.32007 -1.54303,-14.03072 -3.28137,-11.33393 -13.43325,-22.23674 -25.02828,-26.87961 -6.37281,-2.5518 -13.98924,-3.67447 -21.19659,-3.1244 -9.18062,0.70066 -16.40142,3.3559 -23.37859,8.59679 -0.66828,0.50199 -1.32546,0.9127 -1.46038,0.9127 -0.26351,0 -5.92032,-7.58017 -6.19923,-8.30702 -0.19815,-0.51636 5.24006,-4.238947 8.8437,-6.053707 11.76321,-5.923856 26.0439,-7.573395 39.37066,-4.547637 11.07137,2.513685 20.89723,8.428364 29.0676,17.497254 6.08317,6.75215 10.52156,15.8784 11.99703,24.66841 0.74264,4.4242 0.73912,13.30111 -0.007,17.69095 -2.68864,15.81845 -13.70059,30.18028 -29.05148,37.88904 -9.3123,4.67637 -21.14702,6.6802 -32.11942,5.4384 z"
       id="path4496"
       inkscape:connector-curvature="0"
       inkscape:label="path4496"
       sodipodi:nodetypes="cssccscccsccccsccssccscccccccccsccsccccccscccsccccccscccscccsccccccsccccccccssccccccccccccccccccsssccccsscccsscccccccccccccccccccccccscccccccccsccccsssscsccscsssscscc" />
    <path
       inkscape:connector-curvature="0"
       d="m 14.337896,225.60627 c -2.754375,-1.45207 -4.056945,-3.64915 -4.056945,-6.84297 0,-2.64222 0.679732,-4.18624 2.54628,-5.78393 2.547203,-2.18032 6.272512,-2.44983 9.353482,-0.67669 1.927518,1.10931 2.410893,1.95377 1.458725,2.54841 -0.609066,0.38037 -0.863386,0.29844 -1.900656,-0.61229 -2.42466,-2.12888 -6.55247,-1.69008 -8.533468,0.90714 -1.263304,1.65628 -1.509615,4.66555 -0.52879,6.46041 1.805367,3.30372 6.622654,4.10715 9.356338,1.56043 0.953185,-0.88799 1.019169,-0.8999 1.67855,-0.30317 0.63847,0.5778 0.645986,0.66576 0.107719,1.26054 -0.318254,0.35166 -1.242785,0.9609 -2.054514,1.35385 -1.848442,0.89481 -5.841858,0.96379 -7.426721,0.12827 z m 16.227778,0.0334 c -4.162019,-2.15682 -5.541673,-6.90589 -3.177965,-10.93926 1.898237,-3.23909 6.497959,-4.50795 9.880743,-2.72565 2.965999,1.56271 4.188877,3.76689 3.994858,7.20054 -0.165256,2.92462 -1.392069,4.9326 -3.785761,6.19632 -1.874172,0.98945 -5.265959,1.12098 -6.911875,0.26805 z m 6.559449,-2.09882 c 3.023066,-1.93912 3.294916,-7.07827 0.491091,-9.28375 -2.424758,-1.90732 -5.367373,-1.83944 -7.597394,0.17525 -2.503939,2.26216 -2.700054,5.76339 -0.461609,8.24107 1.980279,2.19194 4.968974,2.5345 7.567912,0.86743 z m 6.750608,-4.84493 0.0955,-7.14375 3.527778,0.0359 c 4.840471,0.0493 6.823982,1.05585 8.100434,4.11083 1.180017,2.82417 0.450829,6.68441 -1.627907,8.61797 -1.322024,1.2297 -2.573673,1.52281 -6.502799,1.52281 h -3.688504 z m 7.911929,4.96758 c 0.537172,-0.25832 1.353697,-1.02529 1.814499,-1.70439 0.704441,-1.03815 0.817009,-1.57306 0.70708,-3.35993 -0.221033,-3.59275 -1.794288,-4.97503 -6.074164,-5.33681 l -2.676345,-0.22623 v 5.74713 5.74713 l 2.626127,-0.19862 c 1.444371,-0.10923 3.065632,-0.40996 3.602803,-0.66828 z m 6.823848,-5.05578 v -7.23194 h 4.233334 4.233333 v 0.88194 c 0,0.87885 -0.01175,0.88195 -3.351389,0.88195 h -3.351389 v 2.11667 2.11666 h 3.375925 c 3.299174,0 3.373364,0.0181 3.263195,0.79375 -0.106395,0.74914 -0.296126,0.79945 -3.375925,0.89519 l -3.263195,0.10143 v 2.63259 2.6326 h 3.351389 c 3.116203,0 3.351389,0.0495 3.351389,0.70555 0,0.66636 -0.235186,0.70556 -4.233333,0.70556 H 58.611508 Z M 58.496852,180.66435 C 47.334659,179.36708 38.018021,175.31756 29.088527,167.88189 19.882798,160.2162 13.680371,150.02063 11.112135,138.33224 c -0.931487,-4.23932 -0.942083,-16.81709 -0.01778,-21.10393 2.16622,-10.04673 6.413023,-18.066031 13.425669,-25.351872 8.460108,-8.789694 16.963341,-13.645429 28.623428,-16.345287 4.029773,-0.933081 15.360798,-1.332122 20.061954,-0.706515 9.526549,1.267747 18.144833,4.788578 25.869478,10.568466 3.028416,2.26598 11.042186,9.965869 11.042186,10.609686 0,0.177646 -1.38907,1.226461 -3.08681,2.330701 -1.69774,1.104239 -3.69769,2.489291 -4.44432,3.077881 l -1.35752,1.07018 -0.89737,-1.20357 c -1.63632,-2.194645 -6.971569,-7.172997 -9.72192,-9.071577 -7.73907,-5.342323 -15.36119,-7.605555 -25.471234,-7.56316 -9.717772,0.04075 -17.708654,2.492491 -25.106133,7.702998 -3.244437,2.28526 -9.440406,8.566619 -11.450904,11.608719 -5.215834,7.89211 -7.283069,15.48792 -6.904594,25.37013 0.221393,5.7807 0.876717,9.1441 2.702414,13.86993 4.316435,11.17314 15.172837,21.35936 26.766173,25.11385 5.132106,1.66203 7.442882,1.9694 14.6986,1.95513 6.056874,-0.0119 7.059726,-0.10322 10.406945,-0.94763 6.268748,-1.58143 10.33992,-3.60483 15.984771,-7.94453 1.127527,-0.86682 2.092148,-1.51961 2.143605,-1.45063 3.555605,4.76638 6.212467,8.4815 6.209697,8.68309 -0.009,0.64774 -5.855258,4.52703 -9.697795,6.43488 -6.475155,3.21495 -11.85678,4.8042 -19.064295,5.62986 -3.592209,0.4115 -9.767126,0.40933 -13.329529,-0.005 z"
       style="display:inline;fill:#646aa3;fill-opacity:1;stroke-width:0.35277778"
       id="path4500"
       sodipodi:nodetypes="ssccccccccccsccssccscscscccccsccscccccccsccccsscccscccccssscccssssssssscccssssssscsccccccc" />
  </g>
</svg>
