<?xml version="1.0" encoding="utf-8"?>
<!-- Generator: Adobe Illustrator 23.0.1, SVG Export Plug-In . SVG Version: 6.00 Build 0)  -->
<svg version="1.1" id="Rectangle_3_1_" xmlns="http://www.w3.org/2000/svg" xmlns:xlink="http://www.w3.org/1999/xlink" x="0px"
	 y="0px" viewBox="0 0 620.76 331.72" style="enable-background:new 0 0 620.76 331.72;" xml:space="preserve">
<style type="text/css">
	.st0{fill-rule:evenodd;clip-rule:evenodd;fill:#01C3DF;}
	.st1{fill-rule:evenodd;clip-rule:evenodd;}
</style>
<g id="Rectangle_3">
	<g>
		<path class="st0" d="M404.99,52.94H259.84L218.8,94.55h139.85L404.99,52.94z M218.06,155.27v2.23v49.26h1.75l43.69-38.64h83.93
			l46.34-40.87H248.51L218.06,155.27z"/>
	</g>
</g>
<g id="fourity_3_">
	<g>
		<path class="st1" d="M41.25,279.3h13.54v-15.1h31.04v-10.27H54.79v-8.25h32.57v-10.64H41.25V279.3z M161.34,234.54h-21.71
			c-12.2,0-19.45,3.06-19.45,16.02v13.21c0,12.96,7.26,16.02,19.45,16.02h21.71c12.2,0,19.45-3.06,19.45-16.02v-13.21
			C180.79,237.6,173.53,234.54,161.34,234.54z M166.89,259.55c0,6.42-1.34,8.86-7.75,8.86h-17.32c-6.4,0-7.75-2.45-7.75-8.86v-4.77
			c0-5.5,1.34-8.86,8.48-8.86h15.86c7.14,0,8.48,3.36,8.48,8.86V259.55z M256.66,260.59c0,5.62-2.01,7.83-7.56,7.83h-13.42
			c-5.55,0-7.56-2.2-7.56-7.83v-25.56h-13.54v28.49c0,11,5.67,16.26,18.11,16.26h19.39c12.44,0,18.11-5.26,18.11-16.26v-28.49
			h-13.54V260.59z M345.83,235.03h-40.86v44.26h13.54V267.8h21.28c4.21,0,5.55,1.53,5.55,6.17v5.32h13.54v-7.52
			c0-7.28-3.35-9.05-7.38-9.78v-0.12c6.22-1.47,7.56-4.95,7.56-10.88v-2.81C359.07,240.23,356.26,235.03,345.83,235.03z
			 M345.89,252.15c0,3.18-1.34,4.65-5,4.65h-22.38v-10.76h21.16c4.27,0,6.22,0.73,6.22,4.65V252.15z M394.57,279.3h13.54v-44.26
			h-13.54V279.3z M440.37,246.04h19.03v33.26h13.54v-33.26h19.03v-11h-51.6V246.04z M565.46,235.03l-14.88,18.1l-14.88-18.1h-16.34
			l24.46,28.86v15.41h13.54v-15.41l24.46-28.86H565.46z"/>
	</g>
</g>
</svg>
