<?xml version="1.0" encoding="utf-8"?>
<!-- Generator: Adobe Illustrator 19.2.1, SVG Export Plug-In . SVG Version: 6.00 Build 0)  -->
<svg version="1.1" id="Layer_1" xmlns="http://www.w3.org/2000/svg" xmlns:xlink="http://www.w3.org/1999/xlink" x="0px" y="0px"
	 width="192.46px" height="54px" viewBox="0 0 192.46 54" style="enable-background:new 0 0 192.46 54;" xml:space="preserve">
<style type="text/css">
	.st0{fill:#083050;}
	.st1{display:none;}
	.st2{display:inline;fill:#083050;}
</style>
<g>
	<g>
		<path class="st0" d="M29.26,16.9l-1.29,2.74c-2-1.21-4.01-1.71-5.4-1.71c-1.82,0-3.01,0.69-3.01,1.92c0,4.03,9.96,1.87,9.94,8.51
			c0,3.3-2.9,5.33-6.96,5.33c-2.9,0-5.64-1.19-7.54-2.93l1.34-2.69c1.9,1.74,4.27,2.69,6.25,2.69c2.16,0,3.45-0.82,3.45-2.24
			c0-4.11-9.96-1.82-9.96-8.38c0-3.16,2.72-5.14,6.72-5.14C25.2,15.01,27.55,15.77,29.26,16.9z"/>
	</g>
	<g>
		<path class="st0" d="M44.28,27.83H33.84c0.47,2.13,2.1,3.45,4.28,3.45c1.51,0,2.88-0.57,3.9-1.61l1.58,1.69
			c-1.35,1.48-3.32,2.34-5.71,2.34c-4.26,0-7.06-2.83-7.06-6.99c0-4.18,2.88-7.01,6.99-7.04C42.67,19.68,44.65,22.84,44.28,27.83z
			 M41.68,25.65c-0.1-2.23-1.58-3.58-3.84-3.58c-2.18,0-3.71,1.38-4.05,3.58H41.68z"/>
	</g>
	<g>
		<path class="st0" d="M49.8,33.7l-5.43-14.02h3.16l3.9,11.04l3.85-11.04h3.03L52.94,33.7H49.8z"/>
	</g>
	<g>
		<path class="st0" d="M71.71,27.83H61.28c0.47,2.13,2.1,3.45,4.28,3.45c1.5,0,2.88-0.57,3.89-1.61l1.58,1.69
			c-1.35,1.48-3.32,2.34-5.71,2.34c-4.25,0-7.06-2.83-7.06-6.98c0-4.18,2.88-7,6.98-7.03C70.1,19.69,72.07,22.85,71.71,27.83z
			 M69.11,25.65c-0.1-2.23-1.58-3.58-3.84-3.58c-2.18,0-3.71,1.37-4.05,3.58H69.11z"/>
	</g>
	<g>
		<path class="st0" d="M86.61,25.05v8.65h-3.01v-7.81c0-2.09-1.25-3.37-3.35-3.37c-2.3,0.03-3.74,1.62-3.95,3.79v7.4h-3.01V19.68
			h3.01v2.78c0.99-1.93,2.77-2.77,5.12-2.77C84.68,19.69,86.61,21.73,86.61,25.05z"/>
	</g>
	<g>
		<path class="st0" d="M97.85,15c3.87,0,6.28,1.76,6.28,4.68c0,2.11-1.26,3.69-3.29,4.17c2.51,0.43,4.01,2.22,4.01,4.73
			c0,3.21-2.59,5.13-6.81,5.13h-8.31V15H97.85z M92.88,22.75h4.81c2,0,3.21-0.94,3.21-2.51c0-1.58-1.2-2.43-3.21-2.43h-4.81V22.75z
			 M92.88,30.9h4.81c2.46,0,3.93-0.96,3.93-2.73c0-1.66-1.47-2.64-3.93-2.64h-4.81V30.9z"/>
	</g>
	<g>
		<path class="st0" d="M109.42,22.55c0.94-1.88,2.62-2.88,4.81-2.88v2.88c-2.8-0.16-4.58,1.49-4.81,3.87v7.27h-3.01V19.68h3.01
			V22.55z"/>
	</g>
	<g>
		<path class="st0" d="M118.78,16.56c0,0.89-0.65,1.54-1.5,1.54c-0.85,0-1.5-0.65-1.5-1.54c0-0.92,0.65-1.56,1.5-1.56
			C118.14,15,118.78,15.65,118.78,16.56z"/>
	</g>
	<g>
		<rect x="115.79" y="19.68" class="st0" width="3.01" height="14.02"/>
	</g>
	<g>
		<path class="st0" d="M134.75,33.7h-2.97v-2.48c-0.98,1.6-2.64,2.48-4.83,2.48c-3.96,0-6.59-2.87-6.59-7.06
			c0-4.14,2.66-6.95,6.54-6.95c2.22,0,3.88,0.9,4.89,2.51V15h2.97V33.7z M131.78,26.75c0-2.66-1.73-4.52-4.21-4.52
			c-2.48,0-4.21,1.89-4.24,4.52c0.03,2.61,1.73,4.47,4.24,4.47C130.05,31.22,131.78,29.36,131.78,26.75z"/>
	</g>
	<g>
		<path class="st0" d="M165.72,27.83h-10.44c0.47,2.13,2.1,3.45,4.28,3.45c1.51,0,2.88-0.57,3.89-1.61l1.58,1.69
			c-1.35,1.48-3.32,2.34-5.71,2.34c-4.26,0-7.06-2.83-7.06-6.98c0-4.18,2.88-7.01,6.98-7.04C164.11,19.68,166.08,22.84,165.72,27.83
			z M163.12,25.65c-0.1-2.23-1.58-3.58-3.84-3.58c-2.18,0-3.71,1.38-4.05,3.58H163.12z"/>
	</g>
	<g>
		<path class="st0" d="M177.22,21.07l-1.09,2.2c-1.22-0.75-2.75-1.22-3.97-1.22c-1.17,0-2.02,0.39-2.02,1.37
			c0,2.54,7.34,1.17,7.31,6.17c0,2.83-2.51,4.1-5.29,4.1c-2.02,0-4.17-0.67-5.55-1.92l1.06-2.13c1.19,1.06,3.11,1.71,4.61,1.71
			c1.27,0,2.25-0.44,2.25-1.48c0-2.83-7.26-1.24-7.23-6.22c0-2.8,2.44-3.99,5.08-3.99C174.14,19.68,175.98,20.19,177.22,21.07z"/>
	</g>
	<g>
		<path class="st0" d="M147.74,19.68h-0.03v2.37v0.11c-1.01-1.57-2.65-2.46-4.85-2.46c-3.88,0-6.54,2.82-6.54,6.95
			c0,4.19,2.64,7.06,6.59,7.06c2.18,0,3.82-0.86,4.8-2.44v1.25c0,2.43-1.74,3.98-4.4,3.98c-1.71,0-3.08-0.55-4.4-1.53l-1.29,2.19
			c1.71,1.16,3.64,1.85,5.83,1.85c4.4,0,7.28-2.53,7.28-6.56v-0.29V19.68H147.74z M143.52,31.22c-2.51,0-4.21-1.86-4.24-4.47
			c0.03-2.64,1.76-4.52,4.24-4.52c2.3,0,3.95,1.59,4.18,3.94v1.16C147.47,29.63,145.82,31.22,143.52,31.22z"/>
	</g>
</g>
<g class="st1">
	<rect class="st2" width="15" height="15"/>
	<rect y="39" class="st2" width="15" height="15"/>
	<rect x="177.46" class="st2" width="15" height="15"/>
	<rect x="177.46" y="39" class="st2" width="15" height="15"/>
</g>
</svg>
