<?xml version="1.0" encoding="UTF-8" standalone="no"?>
<!-- Created with Inkscape (http://www.inkscape.org/) -->

<svg
   xmlns:dc="http://purl.org/dc/elements/1.1/"
   xmlns:cc="http://creativecommons.org/ns#"
   xmlns:rdf="http://www.w3.org/1999/02/22-rdf-syntax-ns#"
   xmlns:svg="http://www.w3.org/2000/svg"
   xmlns="http://www.w3.org/2000/svg"
   xmlns:sodipodi="http://sodipodi.sourceforge.net/DTD/sodipodi-0.dtd"
   xmlns:inkscape="http://www.inkscape.org/namespaces/inkscape"
   width="150.02048mm"
   height="111.6588mm"
   viewBox="0 0 150.02048 111.6588"
   version="1.1"
   id="svg3788"
   inkscape:version="0.92.2 (5c3e80d, 2017-08-06)"
   sodipodi:docname="typhoon-hil.svg">
  <defs
     id="defs3782" />
  <sodipodi:namedview
     id="base"
     pagecolor="#ffffff"
     bordercolor="#666666"
     borderopacity="1.0"
     inkscape:pageopacity="0.0"
     inkscape:pageshadow="2"
     inkscape:zoom="1.4"
     inkscape:cx="261.57857"
     inkscape:cy="118.73465"
     inkscape:document-units="mm"
     inkscape:current-layer="layer1"
     showgrid="false"
     inkscape:window-width="1362"
     inkscape:window-height="729"
     inkscape:window-x="0"
     inkscape:window-y="18"
     inkscape:window-maximized="0" />
  <metadata
     id="metadata3785">
    <rdf:RDF>
      <cc:Work
         rdf:about="">
        <dc:format>image/svg+xml</dc:format>
        <dc:type
           rdf:resource="http://purl.org/dc/dcmitype/StillImage" />
        <dc:title />
      </cc:Work>
    </rdf:RDF>
  </metadata>
  <g
     inkscape:label="Layer 1"
     inkscape:groupmode="layer"
     id="layer1"
     transform="translate(-38.042698,-77.008067)">
    <path
       style="fill:#ed1b24;fill-opacity:1;stroke-width:0.18344329"
       d="m 99.877654,157.18189 c -2.47829,-0.19092 -2.81431,-0.48231 -2.81431,-2.44044 0,-1.00932 -0.0763,-1.30079 -0.46917,-1.79298 -0.63609,-0.79687 -0.59411,-1.19677 0.27184,-2.58954 1.02316,-1.64561 2.10955,-4.05878 2.89709,-6.43519 1.275376,-3.8485 2.261756,-9.57786 2.148686,-12.48058 -0.0575,-1.47532 -0.11668,-1.69452 -0.67531,-2.49982 -0.33678,-0.48548 -0.7055,-1.21024 -0.81938,-1.61057 -0.20205,-0.71031 -0.12346,-2.99057 0.1317,-3.82108 0.092,-0.29937 0.0467,-0.40346 -0.17562,-0.40346 -0.745156,0 -1.539016,2.88688 -1.311296,4.76855 0.0633,0.52321 0.0245,1.06686 -0.0909,1.27292 -0.26463,0.47246 -1.57592,0.85116 -4.82722,1.39408 -3.382818,0.56488 -4.91195,1.07641 -5.434267,1.81791 -0.21565,0.30614 -0.761236,1.59722 -1.212416,2.86906 -0.451181,1.27185 -1.425721,3.56318 -2.165647,5.09185 -2.012394,4.15757 -2.250986,4.92171 -2.239576,7.17266 0.01047,2.06537 0.161779,2.50547 1.331813,3.87377 1.051122,1.22923 0.74586,2.3929 -0.727148,2.7719 -1.060967,0.27298 -5.17133,0.48689 -6.493478,0.33793 -2.636067,-0.29699 -4.348487,-1.17321 -4.348487,-2.22507 0,-0.25807 0.18301,-0.80896 0.40668,-1.22418 0.25817,-0.47927 0.45462,-1.27878 0.53799,-2.18948 0.112928,-1.23362 0.239013,-1.61033 0.900232,-2.68975 1.630916,-2.66239 1.771269,-5.44701 0.380186,-7.54293 -0.65596,-0.98833 -0.669537,-0.94127 0.819928,-2.84168 1.940026,-2.47528 5.098902,-5.21424 8.630546,-7.48327 0.906768,-0.58259 1.648669,-1.10848 1.648669,-1.16865 0,-0.24206 -1.750869,0.14189 -2.882199,0.63204 -2.359269,1.02216 -4.39921,2.55704 -8.848053,6.65743 -2.500059,2.30424 -2.747639,2.48096 -5.066959,3.61672 -1.34116,0.65675 -3.91633,1.7973 -5.72261,2.53455 -4.75111,1.93921 -7.68179,3.26496 -10.13392,4.58429 -3.90048,2.09858 -4.77318,2.76933 -6.49499,4.99199 -0.54994,0.7099 -1.16588,1.37561 -1.36875,1.47936 -1.2167,0.62219 -3.00413,-0.16335 -5.02965,-2.21043 -1.80203,-1.82121 -2.53126,-3.03931 -2.56466,-4.28397 l -0.0243,-0.90672 1.34853,-1.05048 c 0.74169,-0.57777 1.74976,-1.57262 2.24015,-2.21079 0.4904,-0.63816 1.02362,-1.19821 1.18495,-1.24454 0.16133,-0.0463 0.97226,-0.16363 1.80205,-0.26066 1.87688,-0.21945 3.60051,-0.79666 6.81376,-2.28177 2.30216,-1.06403 2.63726,-1.28404 4.14103,-2.71881 1.78246,-1.70066 2.68958,-3.17853 3.3246,-5.41639 0.37501,-1.32155 0.45952,-4.87125 0.19295,-8.10475 l -0.15814,-1.91833 1.2284,-0.5322 c 1.74375,-0.75548 3.88767,-2.77559 3.65017,-3.43937 -0.0321,-0.0896 -0.59618,0.19496 -1.25358,0.63244 -1.61773,1.07658 -2.77561,1.43529 -4.62236,1.432 -1.24574,-0.002 -1.64508,-0.0787 -2.34581,-0.44949 -0.5675,-0.30025 -0.86513,-0.58529 -0.9074,-0.86898 -0.059,-0.39632 -0.0188,-0.41518 0.65683,-0.30804 1.82404,0.28924 2.88524,0.32538 3.15985,0.10762 0.33665,-0.26697 0.3879,-2.16361 0.0812,-3.00432 -0.21059,-0.5772 -0.51898,-0.73593 -2.14597,-1.10452 -2.7057,-0.61296 -5.01043,-2.30482 -6.05868,-4.44755 -0.40897,-0.83599 -0.50738,-1.29701 -0.50835,-2.38154 -10e-4,-1.15968 0.0763,-1.4789 0.56177,-2.31816 0.66775,-1.15443 2.17436,-2.356103 3.65944,-2.918753 1.59453,-0.60412 4.1852,-0.55697 5.81762,0.10589 0.6709,0.27242 1.33481,0.509523 1.47535,0.526883 0.29212,0.0361 0.3202,-0.008 1.23559,-1.925003 0.87098,-1.82435 2.02442,-3.35982 3.51436,-4.67837 3.22981,-2.85828 9.117602,-5.61005 13.66721,-6.38762 1.900817,-0.32487 6.943405,-0.27024 9.007928,0.0976 3.458015,0.61611 4.881033,0.8135 7.225108,1.00224 2.9624,0.23852 14.318156,0.56809 14.783886,0.42907 0.19294,-0.0576 0.67547,-0.79851 1.14412,-1.75678 1.02465,-2.09514 2.42324,-4.07993 4.00113,-5.67817 1.45394,-1.47268 2.47196,-2.21314 4.56021,-3.31684 l 1.5374,-0.81256 0.87385,0.52986 c 1.75995,1.06716 6.02839,3.23175 9.41261,4.77329 2.62406,1.19528 3.95296,1.9254 5.44229,2.99007 2.43379,1.73984 3.27364,2.12391 6.00528,2.74632 3.37266,0.76845 4.88517,1.5812 6.84891,3.68025 2.41801,2.58462 4.17664,5.13675 5.4345,7.88659 1.40064,3.061973 5.348,13.437093 6.10726,16.052153 0.8946,3.08118 1.81754,5.05115 3.15735,6.73921 1.18269,1.49011 1.88686,2.05748 3.39105,2.73228 3.19983,1.4355 4.93185,0.61309 7.86255,-3.73337 3.4312,-5.08872 4.02426,-5.72046 5.82211,-6.20188 0.96001,-0.25706 4.31012,-0.11251 4.95888,0.21397 0.92322,0.4646 0.91855,0.86744 -0.0172,1.4871 -0.77604,0.51387 -1.15303,1.1106 -1.15303,1.82513 0,0.55488 -0.537,0.79265 -0.79506,0.35204 -0.46445,-0.79299 -0.91365,-1.03841 -1.71318,-0.93594 -1.11632,0.14307 -1.76092,0.9115 -2.73582,3.26138 -1.56886,3.78156 -2.54635,5.40295 -4.24047,7.0338 -2.04013,1.96395 -3.3948,2.5978 -5.78545,2.70701 -1.99659,0.0912 -3.28698,-0.15189 -5.15555,-0.97128 -1.97648,-0.86671 -3.42819,-1.92122 -5.57005,-4.04605 -2.2423,-2.22446 -3.99511,-4.35096 -5.29906,-6.42878 -1.22362,-1.94982 -2.68534,-3.28376 -3.23963,-2.95644 -0.24269,0.14332 -0.23481,2.25659 0.0134,3.59594 0.25217,1.36072 1.03612,3.67755 1.6342,4.82965 1.1673,2.24855 2.62201,3.77673 5.30557,5.5735 1.76989,1.18502 1.6874,1.42009 -0.27893,0.79485 -2.98803,-0.95012 -6.45901,-3.88308 -8.05346,-6.80514 -0.71891,-1.31752 -1.63738,-3.9455 -2.19106,-6.26921 -0.20216,-0.84841 -0.40888,-1.71522 -0.45939,-1.92624 -0.0505,-0.21103 -0.24036,-0.44099 -0.42188,-0.51102 -0.18152,-0.07 -1.80789,-0.19387 -3.61417,-0.2752 -4.48352,-0.20187 -5.41301,-0.4803 -7.23317,-2.16669 -1.55005,-1.43614 -1.96911,-1.53238 -2.84419,-0.6532 -1.41128,1.4179 -2.26195,4.12654 -2.43565,7.75544 -0.2677,5.59246 0.74396,7.27321 6.98574,11.606 5.14531,3.57167 6.83507,5.49315 7.12783,8.10528 0.16335,1.45746 -0.18503,3.58394 -0.88241,5.38611 -0.4704,1.21562 -0.58119,1.83297 -0.70719,3.94078 l -0.1494,2.49936 -0.61528,0.52529 c -0.59614,0.50896 -0.66259,0.52263 -2.13585,0.43957 -2.05462,-0.11585 -3.28847,-0.60688 -5.18708,-2.06428 -2.66398,-2.04492 -2.6874,-2.88118 -0.15484,-5.52704 2.05869,-2.15079 2.35932,-2.8723 1.72715,-4.14523 -0.96117,-1.93541 -6.41263,-3.54842 -14.34677,-4.24501 -3.19205,-0.28025 -3.81439,-0.47405 -4.53829,-1.41324 -0.72773,-0.94416 -2.00972,-3.31467 -2.00972,-3.71614 0,-0.5177 1.53428,-3.39964 2.72331,-5.11538 0.54678,-0.78899 1.65064,-2.05896 2.45302,-2.82216 0.80237,-0.76319 1.40728,-1.4369 1.34424,-1.49714 -0.22984,-0.21961 -2.11223,0.94189 -3.4251,2.11342 -1.603,1.43043 -2.89807,3.16868 -4.1875,5.62049 -1.12956,2.14781 -1.42661,2.85325 -2.76888,6.57565 -0.56485,1.56645 -1.62556,4.07477 -2.35715,5.57405 -2.12416,4.35319 -2.36703,4.95476 -2.77702,6.87841 -0.53085,2.49074 -0.50852,3.07881 0.14939,3.93471 0.29565,0.38464 0.76012,0.89497 1.03215,1.13406 0.79841,0.70175 0.59888,1.73986 -0.43234,2.24941 -1.08401,0.53562 -4.53296,0.73085 -8.081646,0.45746 z M 128.7177,111.40783 c 1.9908,-1.79779 6.19202,-7.60804 5.78185,-7.99624 -0.13716,-0.12982 -0.36981,0.1251 -2.51092,2.75124 -1.65968,2.03564 -2.85204,3.13803 -3.39414,3.13803 -0.50943,0 -2.77888,-0.67249 -3.51668,-1.04207 -0.33245,-0.16654 -1.00893,-0.78695 -1.50329,-1.3787 -0.78495,-0.93958 -1.14765,-1.19239 -2.8628,-1.99536 -2.31711,-1.08479 -3.14471,-1.85298 -4.68438,-4.34807 -0.56229,-0.911213 -1.59404,-2.255993 -2.29278,-2.988423 -1.32291,-1.38668 -1.53465,-1.8289 -2.03406,-4.24824 -0.38942,-1.88645 -0.61443,-1.43908 -0.52743,1.04862 0.0944,2.69821 0.22375,3.02489 1.83959,4.64517 1.15638,1.159543 1.59618,1.868653 2.35131,3.791133 0.89647,2.28231 1.80742,3.15656 4.27099,4.09892 1.2622,0.48281 1.70832,0.86376 3.92333,3.35012 0.70971,0.79665 1.14275,1.09094 2.25199,1.53041 0.75532,0.29925 1.48393,0.55327 1.61913,0.56448 0.1352,0.0112 0.71493,-0.40324 1.28829,-0.92102 z M 57.767488,106.8693 c 0.99515,-0.58788 2.12222,-1.97828 2.62663,-3.2403 0.29827,-0.74625 0.29728,-0.80788 -0.0183,-1.14107 -1.00412,-1.06018 -4.50818,-1.50704 -6.00632,-0.76595 -0.93462,0.46233 -1.49273,1.0248 -1.86769,1.88228 -0.60131,1.37511 -0.17392,2.6099 1.21533,3.51123 0.95538,0.61983 2.77121,0.50946 4.05034,-0.24619 z m 93.580392,-4.78592 c 0.13192,-0.36694 -0.19875,-1.23805 -0.64054,-1.68739 -0.45627,-0.464083 -1.60394,-0.581453 -1.99855,-0.2044 -0.38584,0.36868 -0.24835,1.0455 0.32336,1.59178 0.44354,0.4238 0.71002,0.52416 1.39185,0.52416 0.50655,0 0.87547,-0.0895 0.92388,-0.22415 z m 1.41531,-2.400083 c 0.11799,-0.79049 -1.78396,-1.64047 -3.19006,-1.42562 -0.73601,0.11246 -2.02786,0.63103 -2.02786,0.81402 0,0.0576 0.62093,0.0748 1.37984,0.0382 1.42445,-0.0687 2.20545,0.15132 2.74604,0.7737 0.34652,0.398963 1.02107,0.275253 1.09204,-0.20028 z"
       id="path3836"
       inkscape:connector-curvature="0"
       sodipodi:nodetypes="cscccccccsccsccsscccsccccscscscscccsccccccccccccccccccccccccccccsccccccsccsccsscccccccscssccscccscccccccccccscccccccscssssscccsccccccccccsccccccccsccsccccccscccccccscccscccc" />
    <path
       style="fill:#000000;stroke-width:0.1976043"
       d="m 64.687958,188.43808 c -0.355626,-0.28595 -0.407422,-1.8845 -0.07346,-2.26714 0.123318,-0.14123 0.48454,-0.19388 0.817859,-0.11929 0.334792,0.0751 0.76168,0.011 0.971979,-0.14341 0.418664,-0.30929 1.184802,-2.49297 1.184802,-3.37699 0,-0.31466 -0.908196,-3.70794 -2.018212,-7.54056 -1.110017,-3.83266 -2.018212,-7.17665 -2.018212,-7.43113 0,-0.40965 0.113306,-0.46268 0.988513,-0.46268 0.659776,0 1.056029,0.11243 1.191539,0.3377 0.111677,0.18564 0.832618,2.77154 1.602113,5.74622 0.769501,2.97471 1.457612,5.38872 1.529137,5.36454 0.07151,-0.0247 0.741053,-2.48205 1.487851,-5.46192 0.746778,-2.97986 1.419006,-5.54588 1.493854,-5.70223 0.192485,-0.40225 1.950614,-0.37851 2.063562,0.028 0.117796,0.42407 -4.900796,18.37283 -5.463168,19.53839 -0.246448,0.51078 -0.710373,1.10649 -1.030949,1.32384 -0.647955,0.43926 -2.265232,0.53812 -2.727208,0.16672 z m 10.717903,-0.25996 c -0.04609,-0.16617 -0.06416,-4.9511 -0.03993,-10.63348 l 0.0439,-10.3316 0.961789,-0.0694 c 0.908613,-0.0655 0.967729,-0.0367 1.069374,0.52238 0.11422,0.62799 0.312624,0.75939 0.503381,0.33334 0.291469,-0.65107 1.677798,-1.21377 2.968401,-1.20488 2.199314,0.0137 3.677416,1.36108 4.655196,4.23879 0.391744,1.15295 0.437471,1.56663 0.437471,3.95751 0,2.39084 -0.04569,2.80455 -0.437471,3.9575 -0.922299,2.71442 -2.236123,3.97588 -4.299705,4.12826 -1.323816,0.0979 -2.167015,-0.18729 -3.083395,-1.04255 l -0.588658,-0.54934 -0.08403,3.42797 -0.08403,3.42796 -0.969079,0.0696 c -0.678286,0.0488 -0.994268,-0.0219 -1.052967,-0.23226 z m 6.635448,-8.18736 c 0.658878,-0.47033 1.311082,-1.59926 1.517929,-2.62746 0.285073,-1.41688 0.210582,-4.21716 -0.140639,-5.28428 -0.581944,-1.76854 -2.053848,-2.87999 -3.368646,-2.54367 -1.635625,0.4184 -2.53804,2.27946 -2.53804,5.23418 0,0.97745 0.08621,2.13229 0.191492,2.56635 0.27798,1.14611 0.9513,2.29906 1.554201,2.66127 0.698687,0.4198 2.191489,0.41638 2.783683,-0.005 z m 20.727491,2.78145 c -2.2224,-0.95743 -3.586655,-3.86863 -3.601871,-7.68604 -0.01391,-3.63091 0.954621,-6.10325 2.940431,-7.50165 1.01081,-0.71182 1.25944,-0.78936 2.53029,-0.78936 2.35444,0 3.90058,1.26076 4.86599,3.96795 0.52708,1.478 0.55203,1.6688 0.55203,4.22278 0,2.32051 -0.053,2.83694 -0.40058,3.89841 -0.5383,1.64426 -1.94391,3.41038 -3.08724,3.8791 -1.04782,0.42956 -2.81285,0.43365 -3.79905,0.008 z m 3.7176,-3.199 c 1.7567,-1.84965 1.86854,-6.94696 0.19686,-8.9731 -1.06167,-1.28679 -2.52062,-1.44449 -3.64933,-0.39449 -2.25577,2.09853 -2.06968,8.30053 0.29435,9.80991 0.83243,0.53151 2.44815,0.3052 3.1581,-0.44232 z m 8.20486,3.04801 c -1.23774,-0.67413 -2.37583,-2.27707 -2.87234,-4.04553 -0.55608,-1.98067 -0.55785,-5.23118 -0.004,-7.17637 0.53427,-1.87609 1.79633,-3.61885 3.03044,-4.18469 1.04051,-0.47709 2.79248,-0.54849 3.80349,-0.15494 2.41288,0.93906 3.91198,4.37349 3.73642,8.56016 -0.13111,3.12663 -1.14889,5.48544 -2.91139,6.74767 -1.19327,0.85451 -3.45903,0.97476 -4.78273,0.25392 z m 3.76514,-2.81755 c 1.00159,-0.78314 1.60624,-2.52919 1.60624,-4.63836 0,-2.12612 -0.27212,-3.31233 -1.00283,-4.3716 -1.45706,-2.11227 -3.95917,-1.57343 -4.87942,1.05077 -1.00889,2.87695 -0.43133,6.63845 1.2346,8.04077 0.75089,0.63207 2.17765,0.59379 3.04141,-0.0817 z m -59.738987,2.92713 c -0.163185,-0.091 -0.21023,-2.15963 -0.21023,-9.24365 0,-8.10805 -0.0297,-9.14226 -0.26603,-9.26747 -0.14632,-0.0776 -1.285339,-0.14095 -2.53116,-0.14095 h -2.265127 l 0.05045,-1.33497 0.05045,-1.335 h 6.138727 6.13873 v 1.27695 1.27695 l -2.102305,0.0568 c -1.156267,0.0313 -2.272591,0.11161 -2.480719,0.17851 l -0.378415,0.12176 v 9.00378 c 0,6.6934 -0.05177,9.07531 -0.201821,9.28242 -0.197193,0.2723 -1.524759,0.35755 -1.942529,0.12477 z m 29.430516,-0.0392 c -0.166463,-0.14589 -0.202556,-2.44945 -0.168251,-10.73432 l 0.0437,-10.54859 0.811953,-0.0716 c 1.259257,-0.11106 1.290364,-0.0192 1.290364,3.80984 v 3.33327 l 0.714777,-0.6916 c 1.297893,-1.25578 3.530937,-1.37942 4.90499,-0.27175 0.618057,0.49831 1.208662,1.64686 1.441273,2.80286 0.250946,1.24716 0.22403,11.93393 -0.03099,12.28592 -0.111042,0.15328 -0.512121,0.2786 -0.89137,0.2786 -0.379269,0 -0.780389,-0.12532 -0.891391,-0.2786 -0.145605,-0.20101 -0.20198,-1.80422 -0.202437,-5.74623 -5.16e-4,-5.012 -0.02801,-5.52951 -0.328714,-6.21036 -0.574376,-1.30042 -2.234772,-1.53732 -3.484931,-0.49718 -0.294051,0.2446 -0.691397,0.89181 -0.882968,1.43807 -0.317729,0.9061 -0.3483,1.41307 -0.3483,5.77894 0,4.04106 -0.04112,4.84246 -0.264295,5.15051 -0.277246,0.38276 -1.350235,0.49041 -1.713593,0.17194 z m 36.327211,-4.4e-4 c -0.16567,-0.14534 -0.2028,-1.86981 -0.16825,-7.83222 l 0.0445,-7.64598 h 0.92502 c 0.91753,0 0.92541,0.005 0.97704,0.74247 l 0.0521,0.7425 0.75067,-0.791 c 0.85133,-0.89705 1.57417,-1.16688 2.98286,-1.11344 1.7681,0.0672 3.0391,1.35664 3.4757,3.52646 0.25094,1.24717 0.22403,11.93394 -0.031,12.28593 -0.11104,0.15328 -0.51212,0.2786 -0.89137,0.2786 -0.37927,0 -0.78039,-0.12532 -0.89139,-0.2786 -0.14521,-0.20046 -0.20188,-1.77784 -0.20208,-5.63015 -1.6e-4,-4.62978 -0.0399,-5.46112 -0.29433,-6.16413 -0.75876,-2.09672 -3.65062,-1.58084 -4.43073,0.79043 -0.27222,0.82745 -0.3133,1.57395 -0.31652,5.75182 -0.004,4.05027 -0.0451,4.858 -0.26799,5.16578 -0.27744,0.38303 -1.35031,0.49033 -1.71421,0.17139 z M 142.45,182.56748 c -0.13707,-0.22814 -0.17819,-3.23697 -0.1468,-10.7379 l 0.0437,-10.42103 h 1.09319 1.09321 l 0.084,4.41125 0.084,4.41123 h 3.78415 3.78415 l 0.084,-4.41123 0.084,-4.41125 h 1.09319 1.09319 l 0.0437,10.421 c 0.0316,7.50094 -0.01,10.50976 -0.1468,10.73788 -0.20565,0.34209 -1.60517,0.43425 -1.95362,0.12861 -0.14938,-0.13108 -0.21922,-1.46345 -0.25228,-4.814 l -0.0457,-4.63284 h -3.78414 -3.78416 l -0.0457,4.63284 c -0.033,3.35055 -0.10289,4.68298 -0.25227,4.814 -0.34848,0.30559 -1.748,0.21334 -1.95366,-0.12861 z m 15.48774,0.0381 c -0.23712,-0.32733 -0.29232,-20.52464 -0.0574,-21.03573 0.0954,-0.20758 0.4517,-0.28066 1.13266,-0.23226 l 0.99352,0.0708 0.0437,10.54856 c 0.0344,8.28487 -0.002,10.58846 -0.16825,10.73435 -0.32794,0.2874 -1.71838,0.22595 -1.94426,-0.0858 z m 5.44436,-0.0861 c -0.23219,-0.32056 -0.26429,-1.59737 -0.26429,-10.51733 0,-7.58683 0.0511,-10.2229 0.20182,-10.43112 0.26187,-0.3615 1.85725,-0.3615 2.11912,0 0.14998,0.20704 0.20182,2.59001 0.20182,9.28684 v 9.00823 h 3.86234 c 3.64643,0 3.87204,0.0247 4.03642,0.44905 0.25738,0.66391 0.2114,1.78798 -0.0902,2.20433 -0.22785,0.3145 -0.9221,0.36482 -5.03351,0.36482 -4.11142,0 -4.80569,-0.0505 -5.03354,-0.36482 z"
       id="path1374"
       inkscape:connector-curvature="0"
       sodipodi:nodetypes="ccccsssscccccccscccsccccccsccccccccccccsscccccccscsccccccscccscsccscccscccccscsccccccccccsccccsccscccccssccccsccccccsccccscssccccccccccccccccccccccccccccccccccccccccscsscssssc" />
  </g>
</svg>
